<svg width="62" height="33" xmlns="http://www.w3.org/2000/svg"><path d="M48.915 1.459l-4.452 17.892L39.998 1.46H27.1v6.607C25.534 2.284 19.786.834 14.65.752 8.386.67 1.446 3.352 1.205 11.534h8.663c0-2.47 2.289-3.885 4.45-3.849 2.655-.022 3.876 1.098 3.937 2.84-.091 1.512-.994 2.564-3.914 2.564h-2.914v5.938h2.645c1.502 0 3.593.808 3.675 2.922.1 2.519-1.673 3.626-3.855 3.647-3.895-.143-4.9-3.099-4.9-5.642H0c.038 1.713-.019 12.877 14.073 12.795 6.751.06 11.664-2.743 13.05-6.609v5.925h8.672V12.761l4.796 19.304h7.748l4.813-19.282v19.3H62V1.458H48.915zM27.13 19.309c-1.105-2.256-2.66-3.243-3.534-3.556 1.836-.806 2.797-1.9 3.534-4.081v7.637z" fill="#EE1B2D"/></svg>