<svg xmlns="http://www.w3.org/2000/svg" viewBox="0 0 105 28"><g fill="#004A93" fill-rule="evenodd"><path d="M37.525 13.068l.361-.144a10.67 10.67 0 0 1 2.285-.662c.361-.048.842-.096 1.083-.096 1.203 0 1.563.397 1.563 1.503v.313c-1.683.277-2.164.373-3.127.577-.48.12-.962.277-1.443.482-1.564.625-2.285 1.828-2.285 3.716 0 2.37.962 3.5 3.127 3.5.842 0 1.684-.193 2.285-.578.601-.276.842-.42 1.564-1.082v.385c0 .782.36 1.155 1.082 1.155h3.608V20.85h-.12c-.722 0-1.082-.325-1.082-.975V13.73c0-3.199-1.083-4.281-4.21-4.281-1.082 0-2.045.12-3.007.348-.962.229-1.443.398-2.526.963l.842 2.309zM9.141 5.418c1.082 0 1.563.325 1.804 1.336l4.33 15.383h-4.09l-1.202-4.054H5.05L3.85 22.137H0L4.33 8.99c.36-.83.36-1.059.36-1.407 0-.554-.36-.782-1.082-.782h-.481V5.419h6.014zm9.983 0c.841 0 1.323.422 1.323 1.227v15.492h-3.729V7.752c0-.65-.36-.95-1.082-.95h-.24V5.419h3.728zm6.735 0c.842 0 1.323.422 1.323 1.227v15.492h-3.729V7.752c0-.65-.36-.95-1.082-.95h-.24V5.419h3.728zm6.855 4.198c.722 0 1.203.457 1.203 1.239v11.282H30.19V11.96c0-.685-.24-.986-.963-.986h-.24V9.616h3.728zm19.244 0c.722 0 1.083.385 1.083 1.167v.673c1.684-1.455 2.766-1.984 4.21-1.984 1.082 0 1.803.3 2.405.95.48.661.721 1.42.721 3.175v8.54H56.65v-7.939c0-1.274-.24-1.635-1.083-1.635-.842 0-1.443.3-2.285 1.082v8.492h-3.728V11.96c0-.685-.361-.986-1.083-.986h-.12V9.616h3.608zm-9.14 6.447v2.502c-.722.721-1.564 1.13-2.286 1.13-.721 0-1.082-.349-1.082-1.287 0-1.034.24-1.431 1.082-1.756.602-.253 1.203-.409 2.285-.59zm-33.316-.65l-1.805-6.65-2.044 6.65h3.849zm24.535-8.515c0-1.107-.841-1.756-2.164-1.756-1.444 0-2.165.65-2.165 1.756 0 1.13.721 1.792 2.165 1.792 1.323 0 2.164-.661 2.164-1.792z"/><path fill-rule="nonzero" d="M71.925 19.741h-5.533l5.292-7.553V9.614h-7.938c-.962 0-1.323.385-1.323 1.311v2.273h1.323v-.252c0-.686.36-.962 1.082-.962h2.887l-5.412 7.553v2.598h9.622"/><path d="M93.213 21.45V7.28c0-1.142-.481-1.515-1.563-1.515h-3.248V7.33h.361c.602 0 .842.229.842.926V21.45h3.608zm1.925 0h3.488V10.756c0-1.083-.481-1.516-1.564-1.516h-1.924V21.45zm-7.457 0V9.24h-1.925c-1.082 0-1.563.433-1.563 1.516v10.692h3.488zm15.034-7.121c0 6.627-4.811 11.462-11.306 11.462-6.495 0-11.306-4.835-11.306-11.462S84.914 2.867 91.41 2.867c6.495 0 11.306 4.835 11.306 11.462zm2.285 0C105 6.571 99.227.75 91.409.75c-7.697 0-13.59 5.821-13.59 13.579 0 7.782 5.893 13.603 13.59 13.603 7.818 0 13.591-5.821 13.591-13.603z"/></g></svg>