<svg xmlns="http://www.w3.org/2000/svg" viewBox="0 0 86 62"><g fill="#1C4882"><path d="M18.96 52.354h3.575v-17.61H18.96v17.61zm6.051 0h3.577v-17.61h-3.577v17.61zM13.895 34.746l-3.86-.001L0 52.354h3.862l3.515-6.17h4.06l1.518-2.659v8.829h3.686V34.746h-2.746zm-4.973 8.727l4.033-7.08v7.08H8.922zm32.437 6.455c0 .036.33 2.843-5.328 2.843-5.656 0-5.256-2.843-5.256-2.843v-2.496h3.577v1.317c0 .487-.059.89.292 1.144.46.332 2.342.387 2.809 0 .298-.245.293-1.075.293-1.075v-.936c0-.728-.673-.956-.73-.988-.025-.016-4.598-.988-5.475-1.75-.877-.763-.766-1.769-.766-1.769V40.22c.364-3.016 5.438-2.72 5.438-2.72s4.963-.295 5.145 2.72v2.254h-3.576v-1.04c0-1.181-.603-1.42-1.588-1.403-1.095.014-1.76.206-1.76 1.455 0 0-.191 1.404.721 1.681.911.278 4.013.92 4.305 1.04 0 0 1.898.416 1.898 2.532v3.189zm8.663-9.708v-2.427h-2.251v-3.05h-3.577v3.05h-1.05l-1.386 2.427h2.436v12.134h3.577V40.22h2.251zm11.223.173c0-3.017-5.155-2.893-5.155-2.893s-5.073-.295-5.439 2.72v2.22h3.6l-.003-.928c0-1.249.436-1.504 1.677-1.517 1.13-.012 1.734.258 1.734 1.439v1.975h-3.227s-3.961-.193-3.78 3.123v2.98s-.035 2.843 2.738 2.843h2.777l1.428-2.496h-2.139s-1.093.278-1.093-1.872c0-2.15.69-2.047.985-2.047h2.226v6.414h3.685l-.014-11.96zm8.873-.173v-2.427h-2.291v-3.05H64.25v3.05h-1.074l-1.385 2.427h2.46v12.134h3.575V40.22h2.291zm4.138 3.192l3.373-.003v-1.975c0-1.181-.604-1.451-1.733-1.439-1.24.013-1.637.13-1.637 1.378l-.003 2.04zm0 2.504v2.973s-.11 1.143 1.752 1.143c1.752 0 1.62-1.143 1.62-1.143v-1.39h3.614v1.944c0 3.674-5.329 3.259-5.329 3.259-5.73 0-5.293-3.19-5.293-3.19V40.22c.365-3.016 5.438-2.72 5.438-2.72s5.158-.123 5.158 2.893v5.518l-6.96.005zm8.257 4.893c0-.817.663-1.42 1.446-1.42.777 0 1.436.603 1.436 1.42 0 .824-.66 1.427-1.436 1.427-.783 0-1.446-.602-1.446-1.427zm1.446 1.19c.642 0 1.15-.505 1.15-1.19 0-.675-.507-1.183-1.15-1.183-.652 0-1.16.507-1.16 1.183 0 .685.508 1.19 1.16 1.19zm-.301-.365h-.249v-1.641h.624c.389 0 .579.142.579.466 0 .295-.183.421-.424.452l.466.723h-.279l-.433-.711h-.285v.711h.001zm.298-.925c.21 0 .397-.013.397-.265 0-.205-.186-.243-.358-.243h-.338v.508h.299zm-68.818 9.787h-.633v-1.693l-1.82-2.936h.773l1.213 2.045c.087.144.11.176.193.334.11-.177.129-.223.192-.328l1.128-2.052h.662l-1.708 2.937v1.693zm2.74.065c-1.384 0-1.494-1.055-1.494-1.666 0-.484.034-1.75 1.542-1.75 1.404 0 1.467 1.048 1.481 1.58.014.563 0 1.836-1.53 1.836zm.048-3.056c-.902 0-.923 1.003-.923 1.37 0 .48.049 1.33.91 1.33.661 0 .886-.544.874-1.449-.008-.74-.22-1.251-.86-1.251zm4.965 2.991h-.586v-.387c-.166.138-.537.452-1.135.452-.181.005-.36-.03-.525-.105-.502-.236-.516-.722-.523-1.095v-2.144h.586v1.888c0 .355.013.57.089.735.108.227.33.354.619.354.24 0 .543-.099.694-.25.175-.163.189-.348.195-.511v-2.216h.586v3.28zm1.156-3.267h-.4l.378-.728h-.33v-.634h.723v.602l-.371.76zm1.375 3.267h-.593v-3.285h.593v.431c.123-.15.377-.485.839-.485.214 0 .317.065.413.12v.517a.935.935 0 0 0-.565-.19.828.828 0 0 0-.337.066c-.345.15-.345.445-.35.621v2.205zm4.348-1.005c-.047.832-.813 1.07-1.405 1.07-.204 0-.743-.022-1.108-.394-.165-.178-.392-.538-.392-1.22 0-1.082.462-1.803 1.537-1.803 1.079 0 1.417.707 1.38 1.7h-2.29c-.007.405.005 1.35.895 1.35.205 0 .756-.074.798-.704h.585zm-.57-.99c-.008-.203-.028-.989-.786-.989-.494 0-.86.335-.9.99h1.685zm3.124-1.284h.593v3.28h-.593v-3.28zm0-1.279h.586v.571h-.586v-.57zm4.274 4.558h-.586v-1.929c0-.15 0-.302-.02-.458-.013-.132-.075-.598-.674-.598-.153 0-.283.026-.4.073-.447.177-.461.498-.467.7v2.212h-.586v-3.28h.586v.368a1.613 1.613 0 0 1 1.12-.44c.318 0 .636.098.827.336.194.242.2.543.2.793v2.223zm5.536-3.28v2.774c.005.433.012 1.01-.317 1.392-.303.347-.786.471-1.26.471-.84 0-1.117-.347-1.17-.413-.193-.244-.188-.563-.188-.674h.565c.014.182.036.477.393.641.09.04.221.079.441.079.11 0 .482 0 .737-.315.212-.249.212-.544.22-.8l.007-.309c-.151.153-.447.434-1.08.434a1.358 1.358 0 0 1-.628-.145c-.489-.262-.674-.808-.674-1.475 0-.44.082-.866.302-1.18a1.33 1.33 0 0 1 1.109-.552c.543 0 .805.256.97.414v-.341h.573zm-.572 1.174c0-.25-.034-.432-.166-.596-.137-.17-.379-.283-.646-.283a.974.974 0 0 0-.475.125c-.406.249-.475.76-.475 1.167 0 .164.013.328.033.492.036.195.132.832.861.832a.971.971 0 0 0 .627-.217c.22-.195.227-.405.24-.615v-.905zm2.806 2.17c-1.381 0-1.491-1.054-1.491-1.665 0-.484.033-1.75 1.542-1.75 1.404 0 1.467 1.048 1.48 1.58.013.563 0 1.836-1.53 1.836zm.051-3.055c-.903 0-.923 1.003-.923 1.37 0 .48.05 1.33.909 1.33.662 0 .888-.544.875-1.449-.007-.74-.222-1.251-.861-1.251zm3.503 3.056c-1.384 0-1.494-1.055-1.494-1.666 0-.484.035-1.75 1.543-1.75 1.403 0 1.465 1.048 1.478 1.58.016.563 0 1.836-1.527 1.836zm.05-3.056c-.902 0-.922 1.003-.922 1.37 0 .48.047 1.33.907 1.33.664 0 .888-.544.876-1.449-.008-.74-.221-1.251-.862-1.251zm4.956 2.991h-.571v-.407c-.16.164-.455.472-1.074.472-1.3 0-1.3-1.345-1.3-1.652 0-.316.04-.866.302-1.233.288-.406.73-.532 1.135-.532.565 0 .8.269.937.414v-1.691h.57v4.63zm-.571-2.185c0-.648-.51-.8-.812-.8-.937 0-.943.984-.943 1.332 0 .589.115 1.35.867 1.35.262 0 .558-.11.702-.295.173-.203.178-.485.187-.702v-.885h-.001zm6.1 2.185h-.592v-1.929c0-.155.006-.308-.017-.458-.013-.126-.073-.598-.672-.598-.154 0-.285.026-.4.073-.449.177-.462.498-.47.7v2.212h-.583v-4.635h.584v1.723a1.62 1.62 0 0 1 1.124-.44c.315 0 .632.098.825.336.192.242.192.543.2.793v2.223zm3.572 0h-.448c-.262 0-.303-.086-.288-.368-.097.086-.207.184-.414.276-.235.104-.48.157-.71.157-.77 0-.971-.57-.971-.944a.89.89 0 0 1 .084-.388c.233-.518.806-.584 1.433-.655l.578-.06v-.294c-.006-.29-.014-.708-.64-.708-.117 0-.393 0-.584.19-.188.176-.192.413-.192.557h-.56c0-.137-.006-.34.097-.536.18-.355.655-.578 1.293-.578.243 0 .69.046.923.262.242.23.242.55.242.786v1.805c0 .138 0 .228.035.308.033.086.07.098.123.112v.078h-.001zm-.736-1.673l-.173.02c-.537.058-.839.124-.99.209a.568.568 0 0 0-.31.524c0 .368.254.61.625.61.187 0 .394-.066.531-.152.303-.184.31-.445.317-.648v-.563zm4.267 1.673h-.584v-1.929c0-.15 0-.302-.02-.458-.014-.132-.077-.598-.677-.598-.149 0-.281.026-.397.073-.447.177-.462.498-.47.7v2.212h-.585v-3.28h.586v.368a1.62 1.62 0 0 1 1.122-.44c.317 0 .633.098.827.336.19.242.199.543.199.793v2.223h-.001zm3.698 0h-.57v-.407c-.16.164-.456.472-1.075.472-1.302 0-1.302-1.345-1.302-1.652 0-.316.04-.866.304-1.233.286-.406.728-.532 1.135-.532.565 0 .798.269.937.414v-1.691h.57v4.63zm-.57-2.185c0-.648-.51-.8-.813-.8-.936 0-.945.984-.945 1.332 0 .589.119 1.35.87 1.35.258 0 .556-.11.702-.295.171-.203.178-.485.186-.702v-.885zm2.186.656c-.308-.09-.838-.249-.838-.852 0-.643.507-.97 1.224-.97.33 0 .655.085.86.235.33.256.325.63.325.768h-.563c.005-.08.019-.171-.023-.288-.09-.25-.315-.368-.626-.368-.4 0-.653.217-.653.479 0 .34.357.446.714.557l.235.065c.24.073.482.146.668.295.055.04.317.258.317.682 0 .223-.09.99-1.28.99-.552 0-1.33-.132-1.289-1.082h.586c-.015.255.013.714.75.714.089 0 .654 0 .654-.518 0-.407-.345-.505-.681-.597l-.38-.11zm2.195 1.528h.695v-.637h-.695v.637zM38.941 16.274c-.004.077-.064.222-.14.4l-.05.114s.193.31.27.416c.077.102.149.208.216.318.158.263.335.507.48.701.066.092.124.17.165.233.152.227.475.673.475.673.003.002.333.129.506.202.266.116.535.27.821.438l.257.146c.13.075.626.402.626.402.034 0 .823-.032 1.137-.006.341.03.856.145 1.178.331.355.206.594.497.645.777.034.203-.073.434-.202.565l-.161.116.027-.16c.06-.308-.238-.568-.495-.683-.423-.193-.929-.287-1.461-.276-.178.004-.968-.002-1-.002h-.017l-.013-.008c-.004-.003-.538-.3-.705-.386a8.432 8.432 0 0 1-.42-.24 6.57 6.57 0 0 0-.656-.362c-.148-.068-.578-.325-.597-.335l-.005-.004-.005-.004a2.773 2.773 0 0 1-.275-.288l-.655-.863c-.488-.64-1.288-1.71-1.288-1.71l.083-.02c.374-.098 1.049-.417 1.158-.531l.111-.115-.01.16z"/><path d="M40.79 15.077c.033.209-.03.479-.03.479.137.233.345.502.566.789.288.37.612.793.849 1.22.082.156.192.336.192.336.024.008.58.193.695.239.318.121.682.338.9.466l.097.055.55.328c.034.004.847.086 1.155.17.442.12.786.263 1.102.583.419.427.344.807.286 1.01a1.116 1.116 0 0 1-.604.725c.34-.386.196-.9.087-1.037-.296-.358-.667-.546-1.375-.693l.008.001-1.04-.105-.012-.001-.011-.007c-.004-.002-.47-.277-.644-.386-.24-.152-.767-.387-1.145-.544l-.565-.233-.015-.006-.01-.015c-.002-.002-.202-.285-.264-.366-.544-.727-1.698-2.34-1.698-2.34l.057-.031c.257-.137.637-.447.761-.659l.084-.141.024.163zm1.59-1.859l.07.265c.036.252.03.467-.017.639 0 0 .909 1.436 1.058 1.71.115.21.305.524.305.526 0 0 .342.125.508.223l.166.1c.256.15.474.28.622.386.145.104.506.345.506.345.024.006.613.102.714.126.308.068.552.176.793.308.369.2.694.635.69 1.05-.006.63-.37.816-.384.826.237-.563-.126-.989-.348-1.14-.231-.16-.57-.284-1.058-.395-.304-.07-.694-.119-.699-.12l-.015-.002-.01-.008c-.005-.002-.463-.314-.57-.385-.25-.16-.492-.299-.709-.423l-.137-.078-.55-.313-.01-.006-.008-.011a8.467 8.467 0 0 1-.27-.369l-.086-.13a265.227 265.227 0 0 0-1.359-2.004l.053-.034c.378-.237.656-.665.698-.827l.048-.259z"/><path d="M45.354.75c1.147.216 2.244.514 3.279.885l-.083.07c-.327.286-.77.77-1.24 1.284-.705.765-1.501 1.635-1.879 1.79-.881.36-1.78 1.226-2.137 2.056-.127.297-.222.55-.296.779-.256-.804-.598-1.491-1.12-2.12a4.655 4.655 0 0 0-1.86-1.367c-.018-.018-1.82-1.702-2.63-2.36a7.216 7.216 0 0 0-.23-.174A21.285 21.285 0 0 1 40.29.755C32.15 1.569 25.98 7.16 25.98 13.733c0 7.25 7.553 13.128 16.867 13.128 9.316 0 16.869-5.877 16.869-13.128 0-6.587-6.27-12.18-14.362-12.983zm-8.495 1.5c.305.3.528.5.71.66.158.14.28.255.41.381.261.253.398.455.367.578-.01.048-.06.04-.147.074l-.105.039-.027.222.1-.003c.968-.023 1.86.632 2.44 1.187 1.004.962 1.763 2.525 1.931 3.981.099.863.193 1.262.268 1.583.046.198.087.37.118.601.113.856.21 1.44.383 1.876.06.156.182.404.289.622.076.157.149.304.184.389.115.27.28.498.285.508l.007.005.006.005c.004.003.256.198.386.307.142.122.386.39.566.585l.165.18.248.254.011.012.615.149c.58.137 1.305.446 1.334.944v.131l.102-.161c.112-.229.126-.44.026-.66-.172-.378-.593-.687-1.265-.873l-.495-.14s-.157-.234-.25-.334c-.019-.022-.045-.05-.074-.085-.124-.144-.33-.383-.59-.586a1.875 1.875 0 0 1-.277-.27 4.826 4.826 0 0 0-.248-.67 8.066 8.066 0 0 1-.35-.847c-.09-.27-.149-.696-.229-1.285l-.053-.39c-.08-.57-.167-1.139-.262-1.706l.062-.354c.116-.652.356-1.367.708-2.123.435-.928 1.339-1.537 1.349-1.542.677-.422 1.653-.65 2.174-.749.152-.016.214-.089.256-.22 0 0-.631-.108-.692-.25-.034-.079.003-.194.105-.34.19-.181.427-.417.674-.668.441-.44.942-.943 1.328-1.285l.002-.001.003-.004.03-.032c2.182.895 4.06 2.13 5.515 3.634-.315.22-.595.413-.685.482-.549.378-1.105.526-1.455.386l-.037-.015a1.655 1.655 0 0 1-.461-.265l-.017-.013-.08-.033-.132-.015-.144.03.086.103c.317.377.48.7.708 1.147l.124.243c.065.124.114.255.157.371.02.054.04.106.061.154.034.083.068.18.105.283l.123.339c.117.314.214.666.353 1.253.296 1.263.448 2.311.46 3.207v.009a.285.285 0 0 1-.017.12l-.314.893c-.44 1.241-1.044 2.94-1.173 3.61-.015.066-.037.097-.034.095-1.132 1.19-1.94 2.597-2.284 3.436-.049.102-.099.157-.147.165-.081.015-.197-.09-.31-.194-.295-.27-.473-.826-.452-1.412.027-.716.334-1.357.845-1.76.05-.038.028-.116.014-.184-.004-.009-.005-.022-.007-.025-.142-.81.089-2.036.6-2.399l.063-.045-.063-.048c-1.408-1.109-2.097-3.139-2.157-4.658l-.005-.111-.136.06-.084.124c-.172.994.033 2.083.139 2.525.341 1.45 1.249 2.318 1.237 2.33-.354.378-.446 1.696-.356 2.252 0 0 .002.008.013-.003 0 0-.003.001-.006.005-.667.563-.843 1.284-.87 1.79-.014.179-.004.359.017.538-.141.19-.27.37-.39.537-.618.866-1.026 1.44-2.105 1.94-1.397.65-4.118.932-4.758.783-.273-.063-.467-.203-.519-.373-.03-.102-.006-.21.066-.316.06-.057.114-.114.164-.168 1.389.16 2.829.033 3.324-.228l.162-.306c-1.192.304-3.68-.119-4.82-.61-1.35-.58-1.762-1.127-2.859-2.589l-.3-.398a2.726 2.726 0 0 0-.32-1.179c-.209-.375-.513-.595-.513-.595.214-.565.177-1.815-.13-2.237 1.107-.865 1.439-1.745 1.08-2.851l-.03-.036-.119-.055-.094-.047.01.104c.127 1.308-1.067 2.152-1.86 2.71l-.153.11.073.047c.638.401.652 1.695.508 2.466l-.007.04.036.023c.146.082.274.196.318.26.628.849.573 2.174-.121 2.953-.084.091-.203.197-.303.178-.13-.029-.213-.27-.248-.376l-.003-.002.002-.003-.185-.386c-.519-1.094-.968-2.037-2.006-3.295a.304.304 0 0 1-.041-.133c-.2-1.667-.46-2.888-.71-4.071l-.12-.574c-.019-.083-.02-.176-.02-.173.075-1.257.462-2.238.906-3.374l.271-.702c.03-.079.224-.545.224-.545l.047-.081c.29-.418.646-.785 1.054-1.088l.11-.084-.154-.06-.205-.047c-.237.032-.547.197-.802.315-.39.182-.794.37-1.12.24 0 0-.417-.255-.681-.41-.134-.079-.271-.159-.401-.238 1.48-1.488 3.38-2.706 5.58-3.574.115.121.237.248.39.4zm3.486 20.387l-.01.04c-.127.09-.274.152-.428.181-.578.097-.915.098-1.137-.157-.126-.144-.145-.35-.057-.623.01-.003.018-.01.028-.015.131.075.26.144.39.203a5.54 5.54 0 0 0 1.214.37zm-2.161-.956c-.097.03-.197.051-.298.061-.317.013-.566-.176-.638-.33-.077-.163-.051-.36-.012-.585.32.335.637.617.948.854zm4.669 4.636c-8.505 0-15.4-5.752-15.4-12.85 0-2.802 1.035-5.324 2.832-7.392.244.183.427.306.44.315l1.25 1.047c-.147.449-.306.893-.478 1.333-.39.993-.796 2.02-.818 2.825a.704.704 0 0 0 .009.139c.08.536.22 1.22.368 1.942.206 1.01.42 2.055.502 2.83.03.254.096.33.138.356.54.568 1.398 1.69 2.433 3.821.05.103.058.118.058.116.078.288.19.465.354.557.176.098.408.096.734-.005l.008-.002.007-.005a2.868 2.868 0 0 0 1.126-1.47c.155.198.313.388.465.564-.136.354-.242.879-.056 1.285.132.284.39.467.749.53.186.032.373.033.561.005a.976.976 0 0 0 .088.817c.123.199.382.45.912.518a1.92 1.92 0 0 0 .98-.139c.113.618.567.776 1.03.878.513.115 1.073.121 2.067.026 1.407-.138 2.931-.619 3.39-.849 1.272-.641 1.591-1.084 2.169-1.892.054-.073.111-.153.17-.23.118.24.264.463.44.653.358.353.688.517.958.47.183-.032.328-.156.432-.378.524-1.274 1.664-2.839 2.559-3.876a.45.45 0 0 0 .075-.148c.188-.734.855-2.517 1.252-3.581l.265-.716c.039-.107.054-.173.054-.182.096-1.541-.084-3.081-.504-4.337a6.76 6.76 0 0 0-.53-1.19c-.05-.086-.157-.287-.162-.295-.002-.004-.007-.01-.007-.015V7.79c.262-.429.98-.916 1.613-1.346l.21-.143c1.689 2.022 2.658 4.462 2.658 7.167 0 7.098-6.895 12.85-15.401 12.85z"/></g></svg>