<svg xmlns="http://www.w3.org/2000/svg" viewBox="0 0 126 13"><g fill="none" fill-rule="evenodd"><path fill="#E31837" d="M114.328 12.98c3.675-3.15 8.837-6.213 11.672-7.315-.437-.28-1.12-.683-1.89-1.12-3.657 1.207-7.927 3.885-11.742 6.912.647.49 1.33.998 1.96 1.523z"/><path fill="#012169" d="M112.647 4.422c-.542-.262-1.137-.507-1.592-.717-1.383.682-3.185 1.715-5.46 3.342.49.263 1.015.578 1.575.893 1.75-1.296 3.517-2.52 5.477-3.518z"/><path fill="#E31837" d="M115.92 2.917c-.665-.367-2.975-1.225-4.568-1.592a43.2 43.2 0 0 0-1.592.63c.577.157 2.73.735 4.567 1.662.473-.227 1.138-.507 1.593-.7z"/><path fill="#012169" d="M108.097 2.69c-2.047.945-4.199 2.24-5.372 2.992.42.192.84.35 1.418.63 2.59-1.75 4.62-2.818 5.425-3.167-.578-.21-1.12-.35-1.471-.455z"/><path fill="#E31837" d="M117.46 2.375c.472-.158 1.015-.298 1.488-.438-1.365-.578-3.08-1.19-4.621-1.575-.245.07-.979.263-1.487.42.525.158 2.257.56 4.62 1.593zm-8.627 6.58c.56.332 1.154.787 1.732 1.172 3.832-2.975 7.612-5.268 11.76-6.563-.577-.297-1.085-.56-1.732-.874-2.486.63-6.738 2.327-11.76 6.264z"/><path fill="#012169" d="M0 12.07h2.8c1.417 0 2.083-.735 2.083-1.768 0-.84-.438-1.4-1.348-1.575.805-.193 1.172-.682 1.172-1.4 0-.91-.664-1.645-2.082-1.645H.018v6.387H0zm2.432-2.713c.525 0 .893.263.893.788 0 .56-.35.787-.893.787h-.91V9.339h.91v.018zm-.175-2.555c.526 0 .893.227.893.753 0 .525-.35.752-.893.752h-.734V6.802h.734zm8.278-1.137H8.96l-2.397 6.404h1.592l.438-1.33h2.31l.437 1.33h1.61l-2.415-6.404zm-.788 1.54l.753 2.362H8.96l.787-2.362zm11.183-1.54h-1.452v4.287l-2.73-4.287H15.12v6.404h1.453V7.8l2.73 4.27h1.627V5.665zm6.703 6.404l-2.1-3.254v3.254h-1.558V5.665h1.557v3.08l1.995-3.08h1.733l-2.1 3.08 2.293 3.324h-1.82zm7.332-3.202c0 1.277.77 2.065 1.768 2.065.997 0 1.767-.787 1.767-2.065s-.77-2.065-1.767-2.065c-.998 0-1.768.787-1.768 2.065zm-1.645 0c.018-1.873 1.33-3.342 3.413-3.342 2.082 0 3.394 1.47 3.412 3.342-.018 1.872-1.33 3.343-3.412 3.343-2.083 0-3.395-1.47-3.413-3.343zm8.96 3.202h1.557V9.55h2.03V8.325h-2.03V6.89h2.45l.28-1.225H42.28v6.404zm11.55-6.404h-1.575l-2.398 6.404h1.593l.438-1.33h2.31l.437 1.33h1.61L53.83 5.665zm-.788 1.54l.753 2.362h-1.54l.787-2.362zm12.443-1.54h-1.82L62.003 9.13 60.34 5.665h-1.82v6.404h1.4V7.782l2.065 4.287 2.065-4.287v4.287h1.452l-.017-6.404zm3.028 6.404h4.374v-1.225H70.07V9.41h2.223V8.22H70.07V6.89h2.573l.28-1.225h-4.41v6.404zm10.307 0h1.698l-1.593-2.712c.875-.245 1.295-.857 1.295-1.75 0-1.155-.7-1.925-2.275-1.925h-2.467v6.405H77v-2.52h.42l1.4 2.502zm-1.172-5.214c.647 0 .98.28.98.822 0 .542-.333.823-.98.823h-.666V6.855h.665zm5.197 5.214h1.558V5.682h-1.558v6.387zm9.222-1.715c-.595.42-1.12.56-1.662.56-1.19 0-2.03-.822-2.03-2.047s.822-2.048 1.978-2.048c.525 0 1.05.14 1.627.56V5.928c-.525-.297-1.138-.42-1.82-.42-2.117 0-3.447 1.47-3.465 3.342.018 1.89 1.312 3.343 3.465 3.343.718 0 1.33-.123 1.89-.42v-1.418h.017zm5.705-4.69h-1.575L93.8 12.07h1.593l.437-1.33h2.31l.437 1.33h1.611l-2.416-6.404zm-.787 1.54l.752 2.363h-1.54l.788-2.362z"/></g></svg>