<svg xmlns="http://www.w3.org/2000/svg" viewBox="0 0 424 380"><path fill="#EB3D32" fill-rule="evenodd" d="M424 0H0v380h424V0zM102.971 140.6v-12.312h5.035c.277 0 .86.027 1.742.076.627.011 1.25.1 1.855.266.511.172 1.029.325 1.552.456.681.179 1.174.429 1.476.76l1.023 1.102c.391.43.664.953.795 1.52.151.608.227 1.292.227 2.052a6.37 6.37 0 0 1-.492 2.622 3.712 3.712 0 0 1-1.666 1.748c-.667.371-1.349.713-2.044 1.026-.58.255-1.477.429-2.688.532-1.212.103-2.033.152-2.461.152h-4.354zM88.131 152h22.866c2.775 0 5.338-.277 7.685-.836a23.079 23.079 0 0 0 6.512-2.622c1.995-1.189 3.57-2.85 4.732-4.978 1.162-2.128 1.741-4.636 1.741-7.524 0-8.713-3.888-13.577-11.66-14.592v-.152c4.191-2.128 6.284-6.031 6.284-11.704 0-9.93-5.652-14.896-16.96-14.896h-21.2V152zm14.84-34.808v-11.096h1.06a25.561 25.561 0 0 1 3.105.152c.903.124 1.791.341 2.65.646.895.28 1.661.874 2.158 1.672.48.787.719 1.813.719 3.078 0 2.177-.731 3.648-2.196 4.408-1.465.76-3.407 1.14-5.83 1.14h-1.666zm80.56-20.71c-4.796-2.459-9.945-3.687-15.445-3.687a33.383 33.383 0 0 0-15.446 3.687 30.14 30.14 0 0 0-11.66 10.526c-2.979 4.56-4.467 9.652-4.467 15.276 0 9.272 2.964 16.861 8.896 22.762 5.933 5.901 13.489 8.854 22.677 8.854 9.188 0 16.744-2.953 22.676-8.854 5.932-5.901 8.897-13.49 8.897-22.762 0-5.624-1.488-10.716-4.468-15.276-2.979-4.56-6.863-8.067-11.66-10.526zm-21.578 11.894a15.845 15.845 0 0 1 6.133-1.14c2.099-.03 4.183.357 6.133 1.14a15.898 15.898 0 0 1 5.224 3.42c3.18 3.04 4.77 6.563 4.77 10.564 0 4.864-1.564 8.93-4.694 12.198-3.131 3.268-6.94 4.902-11.433 4.902-4.494 0-8.302-1.634-11.433-4.902-3.131-3.268-4.694-7.334-4.694-12.198 0-4.001 1.59-7.524 4.77-10.564a15.898 15.898 0 0 1 5.224-3.42zm88.737-11.894c-4.796-2.459-9.945-3.687-15.446-3.687a33.379 33.379 0 0 0-15.445 3.687 30.134 30.134 0 0 0-11.66 10.526c-2.98 4.56-4.468 9.652-4.468 15.276 0 9.272 2.965 16.861 8.897 22.762s13.488 8.854 22.676 8.854c9.188 0 16.745-2.953 22.677-8.854 5.932-5.901 8.896-13.49 8.896-22.762 0-5.624-1.488-10.716-4.467-15.276-2.979-4.56-6.863-8.067-11.66-10.526zm-21.579 11.894a15.848 15.848 0 0 1 6.133-1.14c2.1-.03 4.184.357 6.133 1.14a15.888 15.888 0 0 1 5.224 3.42c3.18 3.04 4.77 6.563 4.77 10.564 0 4.864-1.563 8.93-4.694 12.198-3.131 3.268-6.939 4.902-11.433 4.902-4.493 0-8.302-1.634-11.433-4.902-3.13-3.268-4.694-7.334-4.694-12.198 0-4.001 1.59-7.524 4.77-10.564a15.909 15.909 0 0 1 5.224-3.42zm77.532-13.68l-17.944 23.636h-.152V94.696h-14.84V152h14.84v-24.852h.152L307.854 152h19.232l-24.759-30.172 22.715-27.132h-18.399zm-224.796 68.4l21.049 29.792V220.4h14.84v-27.512l21.048-29.792h-17.793l-10.675 15.58-10.676-15.58H81.847zm104.486 1.786c-4.797-2.459-9.945-3.687-15.446-3.687a33.39 33.39 0 0 0-15.446 3.687 30.142 30.142 0 0 0-11.66 10.526c-2.979 4.56-4.467 9.652-4.467 15.276 0 9.272 2.965 16.861 8.897 22.762s13.488 8.854 22.676 8.854c9.188 0 16.744-2.953 22.677-8.854 5.932-5.901 8.896-13.49 8.896-22.762 0-5.624-1.488-10.716-4.467-15.276-2.979-4.56-6.864-8.067-11.66-10.526zm-21.579 11.894a15.848 15.848 0 0 1 6.133-1.14c2.099-.03 4.184.357 6.133 1.14a15.898 15.898 0 0 1 5.224 3.42c3.18 3.04 4.77 6.563 4.77 10.564 0 4.864-1.563 8.93-4.694 12.198-3.131 3.268-6.939 4.902-11.433 4.902-4.493 0-8.302-1.634-11.433-4.902-3.13-3.268-4.694-7.334-4.694-12.198 0-4.001 1.59-7.524 4.77-10.564a15.898 15.898 0 0 1 5.224-3.42zm94.113-13.68h-14.84v30.172c0 1.824-.038 3.344-.113 4.56-.076 1.216-.303 2.584-.682 4.104-.378 1.52-.908 2.736-1.59 3.648-.681.912-1.677 1.683-2.991 2.318-1.313.635-2.877.95-4.694.95-1.817 0-3.38-.315-4.694-.95s-2.309-1.406-2.991-2.318c-.681-.912-1.211-2.128-1.59-3.648-.378-1.52-.606-2.888-.681-4.104-.076-1.216-.114-2.736-.114-4.56v-30.172h-14.84v32.224c0 4.663.367 8.577 1.098 11.742.731 3.165 2.359 5.993 4.884 8.474 4.289 4.256 10.6 6.384 18.928 6.384 8.329 0 14.64-2.128 18.929-6.384 2.525-2.481 4.153-5.309 4.883-8.474.731-3.165 1.098-7.079 1.098-11.742v-32.224zm56.862 57.304l-17.945-23.484c3.937-.711 7.004-2.557 9.2-5.548 2.195-2.991 3.293-6.536 3.293-10.64 0-5.879-1.817-10.287-5.451-13.224-3.635-2.937-8.431-4.408-14.386-4.408h-22.184V220.4h14.84v-22.04h.151l14.007 22.04h18.475zm-32.633-31.616v-14.288h1.438c6.864 0 10.297 2.383 10.297 7.144s-3.433 7.144-10.297 7.144h-1.438zM88.132 231.496V288.8h21.048c7.977 0 14.802-2.774 20.481-8.322 5.678-5.548 8.518-12.323 8.518-20.33 0-8.007-2.84-14.782-8.518-20.33-5.679-5.548-12.504-8.322-20.481-8.322H88.131zm14.839 44.688v-32.072h3.483c4.895 0 8.832 1.417 11.812 4.256 2.979 2.839 4.467 6.764 4.467 11.78 0 5.32-1.552 9.321-4.657 12.008-3.104 2.687-7.03 4.028-11.773 4.028h-3.332zm52.698 12.616l3.937-9.956h20.443l3.71 9.956h15.824l-21.503-57.304h-16.203L139.92 288.8h15.749zm14.31-39.596l6.057 18.24h-12.342l6.133-18.24h.152zm52.394 39.596v-44.688h12.266v-12.616h-39.372v12.616h12.266V288.8h14.84zm23.698 0l3.938-9.956h20.442l3.71 9.956h15.825l-21.503-57.304H252.28L230.323 288.8h15.748zm14.31-39.596l6.058 18.24h-12.342l6.133-18.24h.151z"/></svg>