<svg xmlns="http://www.w3.org/2000/svg" viewBox="0 0 100 17"><g fill="#1B3C72"><path d="M8.443.883c.034.156-.388.289-1.032.3-1.166.033-3.32 1.021-4.186 1.92-.378.4-1.144 1.789-1.144 2.1 0 .1-.078.333-.167.5-.088.177-.166.399-.166.499 0 .1-.078.333-.167.5-.088.177-.166.433-.166.566 0 .133-.045.266-.1.3-.056.033-.133.244-.178.466-.033.222-.11.488-.166.588-.056.1-.211.555-.345 1.01-.144.456-.288.889-.344.956-.177.244-.333 1.787-.266 2.587.089.91.255 1.288.844 1.943.721.788 1.62 1.221 2.998 1.432.4.056 4.152.122 8.338.156l7.628.044 1.81-1.1c1-.599 2.054-1.254 2.332-1.443.455-.31.988-.466.988-.3 0 .123-.577 1.888-.677 2.077a1.26 1.26 0 0 0-.1.477v.278h35.075c31.745 0 35.098-.011 35.254-.178a.6.6 0 0 0 .177-.388c0-.122.045-.3.1-.411.056-.1.289-.789.522-1.521.222-.733.444-1.433.489-1.555.055-.122.277-.822.499-1.554.233-.733.456-1.433.5-1.555.055-.122.278-.821.511-1.554.411-1.3 1.055-3.331 1.71-5.33.177-.555.355-1.21.399-1.477l.078-.466H61.329c-20.986 0-38.14.033-38.14.078.033.2-.023.366-.111.366-.067 0-.933.544-1.932 1.222-1.01.666-1.91 1.22-2.01 1.22-.244 0-.222-.177.155-1.31.189-.555.333-1.132.333-1.287V.75h-5.607C9.82.75 8.421.783 8.443.883zM18.692 3.87c.066.111-.456.644-.644.655-.034 0-.555.322-1.155.722l-1.088.722H9.554l-.422 1.299c-.233.721-.456 1.41-.5 1.532-.055.122-.2.6-.344 1.055-.145.455-.289.877-.344.932a.77.77 0 0 0-.09.367v.255h7.473l5.663-3.775 5.663-3.775h2.543c2.331 0 2.531.011 2.531.189.011.21-.921 3.164-1.188 3.775-.078.189-.144.4-.144.455 0 .211-1.688 5.185-1.8 5.319-.088.11-.599.144-1.876.144-1.754 0-1.765 0-1.765-.255 0-.134.1-.456.21-.7.112-.255.179-.522.134-.588-.066-.1-.966-.123-3.464-.1l-3.375.033-1.11.777-1.111.777-5.163.034c-5.952.044-6.196.01-6.884-.678-.567-.566-.567-.81-.011-2.498.233-.71.699-2.12 1.021-3.131.6-1.843.877-2.443 1.344-2.898.333-.31.91-.566 1.532-.655.888-.144 10.526-.122 10.615.011zm23.76.2c.345.233.678.777.845 1.366.322 1.243-.677 3.042-2.188 3.908-.999.577-.988.544-.488 1.377.244.41.488.822.544.91.067.09.155.267.21.4.056.133.267.489.456.81.544.878.522.9-1.532.9-1.688 0-1.766-.011-1.988-.255-.233-.256-.921-1.366-.921-1.477 0-.045-.211-.433-.478-.866-.266-.433-.51-.866-.555-.955-.244-.522-.71-1.244-.8-1.244-.066 0-.277.544-.477 1.21-.877 2.876-1.054 3.42-1.177 3.498-.066.045-.932.089-1.91.089-1.998 0-2.065-.022-1.776-.7.089-.188.51-1.432.933-2.742 1.998-6.162 2.065-6.351 2.254-6.429.11-.033 2.132-.044 4.508-.011 3.397.044 4.352.089 4.54.21zm7.385-.133c.066.066.01.388-.122.821-.567 1.788-1.044 3.276-1.5 4.697-.277.844-.499 1.632-.499 1.754 0 .19.133.2 2.165.2 1.832 0 2.188.022 2.232.167.078.21-.378 1.699-.6 1.965-.155.189-.5.2-4.208.2-3.442 0-4.041-.022-4.097-.167-.055-.144.389-1.632 1.788-5.884.322-.978.721-2.221.888-2.754.21-.655.377-1.01.51-1.055.3-.11 3.332-.055 3.443.056zm9.815.089c0 .11-.5 1.632-2.132 6.573-.444 1.354-.81 2.531-.81 2.598 0 .078-.078.233-.19.344-.154.178-.365.2-1.809.2-1.221 0-1.665-.033-1.754-.144-.09-.111-.056-.345.133-.922.144-.422.5-1.521.8-2.432.288-.921.71-2.242.943-2.942.222-.7.544-1.721.71-2.254.167-.533.39-1.033.5-1.11.234-.167 3.61-.09 3.61.089zm13.98-.211c.1.033.177.144.177.244 0 .333-.577 1.854-.755 1.987-.133.111-1.166.145-4.297.145h-4.13l-.311.266c-.334.289-.411.8-.156.966.089.056 1.621.1 3.42.1 3.63 0 3.642 0 4.22.788.31.422.443 1.566.244 2.277-.345 1.265-1.855 2.62-3.398 3.03-.289.079-2.265.123-5.507.123-4.275 0-5.086-.022-5.13-.155-.067-.156.266-1.333.522-1.844l.133-.277 4.597-.056c5.04-.055 5.118-.066 5.43-.71.144-.3.133-.345-.1-.533-.223-.178-.522-.2-3.487-.2h-3.242l-.378-.278c-.655-.477-.833-.877-.821-1.832.01-.633.066-.944.255-1.321.5-.966 1.665-1.954 2.898-2.465.31-.122 1.366-.167 4.996-.211 2.532-.033 4.62-.067 4.63-.089.012-.011.09.011.19.045zm21.273.155c0 .211-.499 1.899-.588 2.02-.011.012-1.344.045-2.942.079l-2.932.066-.166.444c-.356.955-.556.889 2.565.91 1.521.012 2.809.067 2.864.123.111.11-.411 1.776-.655 2.043-.155.178-.488.2-3.02.222l-2.842.033-.123.511c-.077.278-.188.61-.255.733-.055.122-.078.255-.044.3.033.033 1.31.066 2.82.066 1.81 0 2.776.045 2.82.122.1.145-.377 1.644-.588 1.9-.156.188-.511.199-4.63.199-4.83 0-4.841 0-4.62-.566.056-.145.267-.789.456-1.433.2-.644.4-1.265.455-1.388.044-.122.267-.821.5-1.554.222-.733.6-1.91.821-2.61.234-.699.478-1.487.544-1.754.078-.288.222-.51.345-.555.322-.122 9.215-.033 9.215.089zm-15.544.056c0 .088-.356 1.22-.778 2.52-1.443 4.353-1.576 4.774-1.51 4.83.034.044.977.056 2.088.044 2.587-.033 2.543-.055 2.132 1.155-.156.489-.367.955-.467 1.022-.233.188-8.183.21-8.294.033-.055-.1 1.588-5.396 1.943-6.273.056-.123.3-.866.555-1.655.245-.788.5-1.521.567-1.643.1-.178.277-.2 1.932-.2 1.543 0 1.832.022 1.832.167zm13.746 10.037c.299.255.333.944.055 1.255-.177.2-.966.277-1.21.11-.411-.266-.444-.976-.078-1.387.233-.256.911-.245 1.233.022z"/><path d="M26.564 6.735c-.122.122-1.021.744-1.999 1.388-1.865 1.221-2.054 1.354-2.054 1.488 0 .088 3.387.066 3.542-.023.056-.044.233-.5.4-1.043.167-.533.378-1.122.455-1.322.289-.666.111-.921-.344-.488zm9.804-.467c-.2.234-.644 1.555-.644 1.9 0 .232.045.243 1.088.243 1.288 0 2.166-.21 2.588-.621.621-.6.51-1.388-.223-1.6-.222-.055-.899-.11-1.52-.11-.933 0-1.144.033-1.289.188z"/></g></svg>