<svg xmlns="http://www.w3.org/2000/svg" width="128" height="53" fill="none"><g filter="url(#a)"><path d="M121.759 0H6.891A1.89 1.89 0 0 0 5 1.89v40.181a1.89 1.89 0 0 0 1.89 1.891h114.87a1.89 1.89 0 0 0 1.891-1.89V1.89A1.89 1.89 0 0 0 121.759 0z" fill="#fff"/><path d="M60.22 34.744c1.509 0 2.832-.794 3.489-1.991l-.714-.403c-.495.967-1.566 1.612-2.774 1.612-2.038 0-3.42-1.508-3.42-3.385 0-1.876 1.382-3.384 3.42-3.384 1.208 0 2.279.645 2.774 1.612l.714-.415c-.668-1.197-1.992-1.98-3.488-1.98-2.475 0-4.225 1.865-4.225 4.167 0 2.303 1.75 4.167 4.225 4.167zm7.324 0c1.681 0 3.028-1.312 3.028-3.015 0-1.704-1.347-3.016-3.028-3.016-1.68 0-3.027 1.312-3.027 3.015 0 1.704 1.347 3.016 3.027 3.016zm0-.736c-1.277 0-2.267-1.002-2.267-2.28 0-1.277.99-2.279 2.267-2.279 1.278 0 2.268 1.002 2.268 2.28 0 1.277-.99 2.279-2.268 2.279zm10.435-5.295c-.737 0-1.44.333-1.865 1.047-.322-.668-.944-1.047-1.75-1.047-.69 0-1.312.276-1.761.978v-.84h-.76v5.755h.76v-3.188c0-1.428.829-1.969 1.658-1.969.817 0 1.346.541 1.346 1.566v3.591h.76v-3.188c0-1.428.714-1.969 1.6-1.969.817 0 1.405.541 1.405 1.566v3.591h.76v-3.591c0-1.44-.887-2.302-2.153-2.302zm6.707 0c-1.025 0-1.842.494-2.326 1.266V28.85h-.76v8.057h.76v-3.43c.484.771 1.301 1.266 2.326 1.266 1.623 0 2.97-1.312 2.97-3.015 0-1.704-1.347-3.016-2.97-3.016zm-.058 5.295c-1.278 0-2.268-1.002-2.268-2.28 0-1.277.99-2.279 2.268-2.279 1.278 0 2.268 1.002 2.268 2.28 0 1.277-.99 2.279-2.268 2.279zm4.291.598h.76v-8.403h-.76v8.403zm2.752-6.976a.553.553 0 1 0 0-1.105.553.553 0 0 0 0 1.106zm-.38 6.976h.76v-5.755h-.76v5.755zm7.322-5.755v1.128c-.484-.771-1.301-1.266-2.326-1.266-1.623 0-2.97 1.312-2.97 3.015 0 1.704 1.347 3.016 2.97 3.016 1.025 0 1.842-.495 2.325-1.266v1.128h.76v-5.755h-.76zm-2.268 5.157c-1.278 0-2.268-1.002-2.268-2.28 0-1.277.99-2.279 2.268-2.279 1.278 0 2.267 1.002 2.267 2.28 0 1.277-.99 2.279-2.267 2.279zm7.329-5.295c-.817 0-1.485.31-1.934 1.036v-.898h-.759v5.755h.759V31.59c0-1.542.852-2.14 1.865-2.14 1.002 0 1.566.598 1.566 1.622v3.534h.759v-3.534c0-1.438-.851-2.36-2.256-2.36zm6.776.874v-.736h-1.657v-1.612l-.76.23v1.382h-1.209v.736h1.209v3.488c0 1.382.863 1.761 2.417 1.531v-.667c-1.116.046-1.657.126-1.657-.864v-3.488h1.657z" fill="#8A98A2"/><path d="M6.89 0h42.072v43.962H6.891A1.89 1.89 0 0 1 5 42.072V1.89A1.89 1.89 0 0 1 6.89 0z" fill="#0450C8"/><path d="M27.217 8.036l.647 1.319 1.444.21-1.045 1.026.247 1.45-1.293-.684-1.291.684.247-1.45-1.045-1.026 1.444-.21.645-1.319zm-6.209 1.87l.647 1.319 1.444.211-1.045 1.026.247 1.45-1.291-.684-1.292.684.246-1.45-1.045-1.026 1.445-.211.644-1.32zm-4.411 4.097l.646 1.319 1.446.21-1.045 1.026.246 1.45-1.292-.684-1.292.684.247-1.45-1.044-1.026 1.444-.21.644-1.32zm16.83-4.097l-.647 1.319-1.444.211 1.045 1.026-.247 1.45 1.291-.684 1.292.684-.246-1.45 1.045-1.026-1.445-.211-.645-1.32zm-12.42 19.928l.647 1.319 1.444.211-1.045 1.026.247 1.45-1.291-.684-1.292.684.246-1.45-1.045-1.026 1.445-.211.644-1.319zm12.418 0l-.646 1.319-1.444.211 1.045 1.026-.247 1.45 1.291-.684 1.292.684-.246-1.45 1.045-1.026-1.445-.211-.645-1.319zm4.412-15.831l-.646 1.319-1.446.21 1.045 1.026-.246 1.45 1.292-.684 1.291.684-.246-1.45 1.044-1.026-1.444-.21-.644-1.32zm-21.24 11.675l.646 1.319 1.446.211-1.045 1.026.246 1.45L16.598 29l-1.292.684.247-1.45-1.044-1.026 1.444-.211.644-1.32zm21.241 0l-.646 1.319-1.446.211 1.045 1.026-.246 1.45L37.837 29l1.291.684-.246-1.45 1.044-1.026-1.444-.211-.644-1.32zm1.47-5.464l.647 1.32 1.444.21-1.045 1.026.247 1.45-1.292-.684-1.291.684.247-1.45-1.049-1.025 1.446-.212.646-1.319zm-24.181 0l.646 1.32 1.445.21-1.045 1.026.247 1.45-1.292-.684-1.292.684.247-1.45-1.047-1.025 1.444-.212.647-1.319zm12.09 12.178l.647 1.32 1.444.21-1.045 1.027.246 1.45-1.292-.684-1.291.684.247-1.45-1.045-1.026 1.444-.212.645-1.319z" fill="#FFBC01"/><path d="M27.217 17.727c-1.375 0-2.482 1.084-2.482 2.43v.406a.821.821 0 0 0-.827.81v4.052c0 .446.372.81.827.81H29.7a.821.821 0 0 0 .827-.81v-4.052a.821.821 0 0 0-.827-.81v-.405c0-1.347-1.107-2.431-2.482-2.431zm0 .81c.942 0 1.655.698 1.655 1.62v.406h-3.31v-.405c0-.923.714-1.621 1.655-1.621zm-1.654 4.457a.41.41 0 0 1 .413.405.41.41 0 0 1-.413.405.41.41 0 0 1-.414-.405.41.41 0 0 1 .414-.405zm1.654 0a.41.41 0 0 1 .414.405.41.41 0 0 1-.414.405.41.41 0 0 1-.413-.405.41.41 0 0 1 .413-.405zm1.655 0a.41.41 0 0 1 .413.405.41.41 0 0 1-.413.405.41.41 0 0 1-.414-.405.41.41 0 0 1 .414-.405z" fill="#fff"/><path d="M29.7 22.184h-4.964v2.43H29.7v-2.43z" fill="#fff"/><path fill-rule="evenodd" clip-rule="evenodd" d="M67.784 16.053v.88c0 3.296-2.334 5.483-5.613 5.483-3.573 0-6.118-2.66-6.118-5.923 0-3.312 2.577-5.955 5.988-5.955 2.17 0 4.013 1.093 4.976 2.66l-1.926 1.109c-.521-.914-1.68-1.583-3.067-1.583-2.17 0-3.736 1.6-3.736 3.77 0 2.12 1.517 3.72 3.9 3.72 1.794 0 2.936-.866 3.328-2.17h-3.46v-1.991h5.728zm6.875-5.287c3.15 0 5.5 2.497 5.5 5.71 0 3.215-2.35 5.711-5.5 5.711h-4.535v-11.42h4.535zm0 9.268c1.975 0 3.345-1.452 3.345-3.557s-1.37-3.557-3.345-3.557h-2.284v7.114h2.284zm12.098-9.267c2.203 0 3.9 1.696 3.9 3.834 0 2.137-1.697 3.834-3.9 3.834H84.75v3.752h-2.251v-11.42h4.258zm0 5.563c.963 0 1.664-.75 1.664-1.73 0-.995-.701-1.729-1.664-1.729H84.75v3.46h2.007zm12.374 5.857l-2.3-3.964h-1.713v3.964h-2.252v-11.42h4.569a3.791 3.791 0 0 1 3.801 3.785c0 1.435-.897 2.724-2.203 3.328l2.529 4.307h-2.43zm-4.013-9.316v3.377h2.317c.848 0 1.55-.75 1.55-1.696 0-.947-.702-1.68-1.55-1.68h-2.317z" fill="#293944"/></g><defs><filter id="a" x=".666" y="0" width="127.319" height="52.63" filterUnits="userSpaceOnUse" color-interpolation-filters="sRGB"><feFlood flood-opacity="0" result="BackgroundImageFix"/><feColorMatrix in="SourceAlpha" values="0 0 0 0 0 0 0 0 0 0 0 0 0 0 0 0 0 0 127 0"/><feOffset dy="4.334"/><feGaussianBlur stdDeviation="2.167"/><feColorMatrix values="0 0 0 0 0.91724 0 0 0 0 0.90776 0 0 0 0 0.90776 0 0 0 0.25 0"/><feBlend in2="BackgroundImageFix" result="effect1_dropShadow"/><feBlend in="SourceGraphic" in2="effect1_dropShadow" result="shape"/></filter></defs></svg>