<svg xmlns="http://www.w3.org/2000/svg" viewBox="0 0 68 68"><g fill="none"><path fill="#FFF" d="M33.997 67.5c18.644 0 33.753-15.109 33.753-33.747C67.75 15.114 52.641 0 33.997 0 15.36 0 .25 15.114.25 33.753.25 52.39 15.359 67.5 33.997 67.5z"/><path fill="#3B73B9" d="M41.571 24.963c0-3.838 2.598-7.56 4.016-6.86 1.615.81-1.211 4.425-4.016 6.86zM23.904 26.36c0-3.086 3.044-8.949 4.904-8.329 2.199.733-1.821 6.647-4.904 8.329zm-3.087 22.068c-1.4.064-2.337-.832-2.337-2.327 0-4.015 5.573-7.851 9.781-9.911-.746 5.607-2.64 12.022-7.444 12.238zm25.708-13.085c-3.178 0-5.607 2.337-5.607 5.14 0 2.339 1.405 4.208 3.269 4.208.66 0 1.313-.376 1.313-1.211 0-1.222-1.612-1.515-1.49-3.332.08-1.199 1.21-2 2.332-2 2.24 0 3.29 2.172 3.29 4.413-.092 3.462-2.64 5.866-5.627 5.866-3.929 0-6.452-3.736-6.452-7.757 0-5.987 3.928-8.323 5.987-8.881.019 0 5.375.952 5.208-1.41-.077-1.038-1.621-1.438-2.737-1.48-1.241-.049-2.495.398-2.495.398-.65-.33-1.102-.977-1.382-1.72 3.834-2.902 6.545-5.704 6.545-8.883 0-1.682-1.124-3.178-3.274-3.178-3.834 0-6.732 4.861-6.732 9.256 0 .745 0 1.495.192 2.149-2.432 1.774-4.241 2.88-7.51 4.843 0-.41.085-1.466.361-2.832 1.12-1.217 2.659-3.04 2.659-4.443 0-.653-.37-1.216-1.126-1.216-1.866 0-3.266 2.807-3.64 4.77-.842 1.033-2.526 2.342-3.93 2.342-1.12 0-1.497-1.029-1.592-1.405 3.554-1.216 7.949-6.078 7.949-10.472 0-.933-.375-2.992-3.178-2.992-4.207 0-7.756 6.266-7.756 11.122-1.5 0-2.058-1.587-2.058-2.803 0-1.218.467-2.429.467-2.805 0-.375-.187-.84-.75-.84-1.4 0-2.242 1.87-2.242 4.02.096 2.992 2.058 4.866 4.674 5.05.375 1.778 1.962 3.461 3.923 3.461 1.218 0 2.713-.374 3.742-1.307-.091.653-.182 1.216-.279 1.774-4.116 2.155-7.108 3.65-9.819 6.08-2.145 1.965-3.361 4.581-3.361 6.635 0 2.809 1.774 5.425 5.42 5.425 4.297 0 7.573-3.458 9.164-8.228.745-2.241 1.044-5.506 1.236-8.502 4.295-2.435 6.334-3.837 8.58-5.43.279.468.561.841.932 1.12-1.962 1.03-6.636 3.93-6.636 10.752 0 4.862 3.269 10.287 9.724 10.287 5.329 0 8.974-4.396 8.974-8.605-.002-3.83-2.152-7.38-6.268-7.38zm16.074 8.031c-.013.029-.066.068-.172.033-.083-.029-.1-.068-.1-.121.004-.053 1.13-3.38 1.12-7.194-.01-4.121-1.682-6.647-3.827-6.647-1.313 0-2.247.939-2.247 2.344 0 2.523 3.083 2.712 3.083 8.227 0 2.24-.467 4.391-1.211 6.727-3.463 11.685-14.495 17.11-25.24 17.11-4.959 0-8.48-1.02-9.527-1.49-.042-.024-.082-.106-.048-.188.024-.062.097-.11.14-.091.424.164 3.447 1.116 7.189 1.116 4.112 0 6.544-1.682 6.544-3.742a2.315 2.315 0 0 0-2.336-2.336c-2.525 0-2.716 3.178-8.137 3.178-2.336 0-4.394-.467-6.823-1.218C9.41 55.532 3.89 44.597 3.895 33.753c.004-5.285 1.486-9.493 1.51-9.532.02-.027.085-.057.167-.027.082.027.1.095.096.12-.134.438-1.116 3.453-1.116 7.195 0 4.116 1.682 6.544 3.832 6.544 1.213 0 2.242-.932 2.242-2.24 0-2.529-3.087-2.808-3.087-8.232 0-2.337.47-4.395 1.216-6.824C12.309 9.163 23.25 3.73 34.001 3.647c4.997-.04 9.368 1.457 9.536 1.59.029.025.058.089.029.164-.04.091-.098.1-.126.095-.052-.004-2.895-1.193-7.199-1.193-4.02-.004-6.544 1.68-6.544 3.833 0 1.212.938 2.241 2.336 2.241 2.525 0 2.712-3.083 8.137-3.083 2.33 0 4.39.462 6.819 1.212 11.69 3.553 17.009 14.584 17.11 25.245.054 5.46-1.485 9.59-1.5 9.624zM34.003 1.591c-17.764 0-32.16 14.393-32.16 32.16 0 17.764 14.396 32.157 32.16 32.157 17.76 0 32.156-14.393 32.156-32.157 0-17.67-14.397-32.16-32.156-32.16zm0 65.909C15.398 67.5.25 52.449.25 33.753.25 15.142 15.398 0 34.003 0c18.6 0 33.747 15.142 33.747 33.753 0 18.696-15.148 33.747-33.747 33.747z"/></g></svg>