<svg xmlns="http://www.w3.org/2000/svg" xmlns:xlink="http://www.w3.org/1999/xlink" viewBox="0,0,256,256" width="48px" height="48px"><g fill="#fd000d" fill-rule="nonzero" stroke="none" stroke-width="1" stroke-linecap="butt" stroke-linejoin="miter" stroke-miterlimit="10" stroke-dasharray="" stroke-dashoffset="0" font-family="none" font-weight="none" font-size="none" text-anchor="none" style="mix-blend-mode: normal"><g transform="scale(4,4)"><path d="M23.77344,12c-10.918,0 -11.77344,0.85444 -11.77344,11.77344v16.45312c0,10.918 0.85544,11.77344 11.77344,11.77344h16.45312c10.918,0 11.77344,-0.85544 11.77344,-11.77344v-15.25586l-4,6.18164v11.67969c0,4.793 -0.37597,5.16797 -5.16797,5.16797h-21.66406c-4.793,0 -5.16797,-0.37597 -5.16797,-5.16797v-21.66406c0,-4.793 0.37497,-5.16797 5.16797,-5.16797h21.66406c1.269,0 2.22131,0.02825 2.94531,0.15625l2.29102,-3.54492c-1.742,-0.515 -4.2428,-0.61133 -7.8418,-0.61133zM50.96289,15.31445c-0.64179,0.01292 -1.26695,0.33273 -1.64258,0.91211l-14.52148,22.44531l-9.02148,-10.33594c-0.725,-0.831 -1.98827,-0.92036 -2.82227,-0.19336c-0.832,0.726 -0.91841,1.99027 -0.19141,2.82227l10.76367,12.33594c0.381,0.437 0.93281,0.68555 1.50781,0.68555c0.048,0 0.09458,-0.00091 0.14258,-0.00391c0.627,-0.045 1.19611,-0.38316 1.53711,-0.91016l15.96484,-24.67187c0.6,-0.928 0.3352,-2.16562 -0.5918,-2.76562c-0.348,-0.225 -0.73993,-0.32807 -1.125,-0.32031z"></path></g></g></svg>