<svg xmlns="http://www.w3.org/2000/svg" viewBox="0 0 85 36"><defs><radialGradient id="a" r="60.433%" fx="50%" fy="50%" gradientTransform="matrix(-.00256 .99998 -.3901 -.00657 .696 .003)"><stop offset="0%" stop-color="gray"/><stop offset="100%" stop-color="gray" stop-opacity="0"/></radialGradient></defs><g fill="none"><path fill="url(#a)" d="M84.3 18.28c0 9.093-18.872 16.443-42.166 16.443C18.871 34.723 0 27.373 0 18.28 0 9.187 18.871 1.837 42.165 1.837c23.263 0 42.135 7.35 42.135 16.443z" transform="translate(0 .75)"/><path fill="#FFF" d="M83.49 18.189c0 8.501-18.498 15.383-41.325 15.383C19.339 33.541.84 26.66.84 18.19c0-8.501 18.498-15.384 41.324-15.384 22.827 0 41.325 6.883 41.325 15.384z"/><path fill="#ED1D24" d="M82.12 16.912c0 8.596-17.813 15.54-39.767 15.54-21.987 0-39.768-6.944-39.768-15.54 0-8.595 17.781-15.57 39.768-15.57 21.954 0 39.767 6.975 39.767 15.57z"/><path fill="#FFF" d="M79.66 16.694c0 8.814-16.754 15.944-37.4 15.944-20.647 0-37.402-7.13-37.402-15.944C4.858 7.882 21.613.75 42.259.75 62.906.75 79.66 7.882 79.66 16.694z"/><path fill="#ED1D24" d="M18.53 11.12v-.374h13.36v.374h-1.123c-1.276 0-2.21.156-2.77.467-.374.187-.561.685-.561 1.464v6.353c0 .965-.249 1.775-.779 2.367-.529.622-1.4 1.151-2.678 1.587-1.245.436-2.772.685-4.578.685-1.463 0-2.585-.155-3.425-.435-.84-.28-1.246-.623-1.246-1.028 0-.31.187-.56.561-.716a5.039 5.039 0 0 1 1.775-.311c.498 0 .934.062 1.34.186.403.124.871.499 1.494 1.06.343.341.809.497 1.37.497.405 0 .81-.094 1.152-.311.374-.219.53-.592.53-1.122v-8.812c0-.654-.094-1.09-.28-1.277-.157-.155-.468-.28-.966-.405-.654-.155-1.34-.217-2.086-.217h-1.09v-.032zm21.86 6.29v4.671c0 .343.125.623.406.78.249.186.654.249 1.183.249.78 0 1.495-.125 2.149-.344.654-.217 1.152-.56 1.494-.995.343-.437.53-.904.53-1.433 0-.622-.218-1.152-.623-1.65-.436-.468-.996-.81-1.744-1.028-.81-.156-1.9-.25-3.394-.25zm0-.716c1.371 0 2.399-.093 3.053-.311.654-.218 1.152-.499 1.494-.872.343-.374.53-.84.53-1.432 0-.593-.156-1.06-.53-1.433-.342-.374-.84-.654-1.494-.84-.654-.188-1.682-.281-3.084-.281v5.17h.032zm5.294.25c1.838.28 3.146.654 3.894 1.058 1.058.592 1.618 1.34 1.618 2.274 0 .996-.59 1.805-1.775 2.428-1.463.78-3.58 1.153-6.352 1.153h-9.966v-.342c.935 0 1.558-.063 1.868-.188.344-.125.562-.249.686-.435.125-.188.187-.623.187-1.34v-8.439c0-.716-.062-1.152-.187-1.339-.124-.187-.373-.343-.685-.436-.343-.124-.965-.156-1.869-.156v-.342h9.405c2.242 0 3.83.124 4.765.404.934.28 1.682.654 2.211 1.184.53.53.81 1.09.81 1.681 0 .624-.343 1.184-1.028 1.682-.654.468-1.868.841-3.582 1.152zm16.474 7.505c2.212-.53 3.364-1.62 3.364-2.959 0-1.868-2.056-2.958-5.201-3.736-3.083-.81-5.138-1.682-5.107-3.177-.031-1.775 2.491-2.99 6.82-2.99 2.958 0 4.297.375 4.453.655.156.404.28 1.308.28 1.899 0 .156-.716.156-.778 0-.561-1.339-1.495-2.117-4.11-2.117-2.648 0-4.455.84-4.455 2.242 0 1.37 1.59 2.149 4.391 2.865 3.427.872 5.98 1.993 5.98 4.017s-2.491 3.145-5.2 3.395c-.22.03-.561-.063-.437-.094zm-5.107.186c-2.896 0-4.672-.404-4.796-.778-.124-.373-.342-1.245-.342-1.962 0-.155.747-.155.778 0 .499 1.401 1.87 2.243 4.547 2.243 3.052 0 5.014-.81 5.014-2.398 0-1.496-1.65-2.43-4.795-3.208-3.52-.934-5.544-2.18-5.544-3.705 0-1.838 2.46-2.959 4.515-3.208.187-.032.592.062.375.124-1.932.374-3.52 1.433-3.52 2.927 0 1.526 1.65 2.679 4.858 3.55 3.394.873 5.45 1.807 5.45 3.458 0 1.743-2.43 2.895-6.447 2.895h-.093v.062z"/></g></svg>