<?xml version="1.0" encoding="utf-8"?>
<!-- Generator: Adobe Illustrator 25.3.1, SVG Export Plug-In . SVG Version: 6.00 Build 0)  -->
<svg version="1.1" id="Layer_1" xmlns="http://www.w3.org/2000/svg" xmlns:xlink="http://www.w3.org/1999/xlink" x="0px" y="0px"
	 viewBox="0 0 100 100" style="enable-background:new 0 0 100 100;" xml:space="preserve">
<style type="text/css">
	.st0{clip-path:url(#SVGID_2_);fill:#FC000D;}
	.st1{clip-path:url(#SVGID_4_);fill:#FC000D;}
</style>
<g>
	<g id="_x3C_Mirror_Repeat_x3E__3_">
		<g>
			<defs>
				<rect id="SVGID_1_" x="1.54" y="6.56" width="48.46" height="88.9"/>
			</defs>
			<clipPath id="SVGID_2_">
				<use xlink:href="#SVGID_1_"  style="overflow:visible;"/>
			</clipPath>
			<path class="st0" d="M50.31,29.87c0.01,0.01,0.01,0.03,0.03,0.04V17.17c-3.22-0.01-6.24-4.6-9.69-6.56
				C21.7-0.1,1.8,11.49,1.55,33.24c-0.08,6.94,2.09,13.2,5.68,18.99c10.6,17.07,25.06,30.41,40.98,42.36
				c0.79,0.59,1.45,0.87,2.13,0.87v-8.75c-0.63,0-1.33-0.27-2.15-0.94c-13.23-10.88-25.9-22.25-34.83-37.14
				c-2.88-4.79-4.94-9.86-4.71-15.62c0.15-9.22,4.72-16.25,11.98-18.42c7.85-2.36,19.4,1.53,24.02,7.81
				c1.34,1.82,0.13,2.7-0.58,3.88c-2.8,4.62-4.94,9.49-5.89,14.84c-0.51,2.83-0.48,5.64,0.4,8.43c1.87,5.85,6.4,9.41,11.75,9.41
				v-7.07c-3.15,0.21-5.74-3.31-5.46-7.51C45.21,39.28,46.98,34.64,50.31,29.87z"/>
		</g>
	</g>
	<g id="_x3C_Mirror_Repeat_x3E__2_">
		<g>
			<defs>
				<rect id="SVGID_3_" x="50" y="6.56" width="48.46" height="88.9"/>
			</defs>
			<clipPath id="SVGID_4_">
				<use xlink:href="#SVGID_3_"  style="overflow:visible;"/>
			</clipPath>
			<path class="st1" d="M49.69,29.87c-0.01,0.01-0.01,0.03-0.03,0.04V17.17c3.22-0.01,6.24-4.6,9.69-6.56
				C78.3-0.1,98.2,11.49,98.45,33.24c0.08,6.94-2.09,13.2-5.68,18.99C82.18,69.29,67.71,82.63,51.8,94.59
				c-0.79,0.59-1.45,0.87-2.13,0.87v-8.75c0.63,0,1.33-0.27,2.15-0.94c13.23-10.88,25.9-22.25,34.83-37.14
				c2.88-4.79,4.94-9.86,4.71-15.62c-0.15-9.22-4.72-16.25-11.98-18.42c-7.85-2.36-19.4,1.53-24.02,7.81
				c-1.34,1.82-0.13,2.7,0.58,3.88c2.8,4.62,4.94,9.49,5.89,14.84c0.51,2.83,0.48,5.64-0.4,8.43c-1.87,5.85-6.4,9.41-11.75,9.41
				v-7.07c3.15,0.21,5.74-3.31,5.46-7.51C54.79,39.28,53.02,34.64,49.69,29.87z"/>
		</g>
	</g>
</g>
</svg>
