<svg xmlns="http://www.w3.org/2000/svg" viewBox="0 0 102 21"><g fill="none"><path fill="#231F20" d="M24.416 2.802h4.293v11.653h4.599v3.68h-8.892zm10.618 9.135V2.804h4.293v9.045c0 .943.176 3.044 2.453 3.044 2.279 0 2.454-2.101 2.454-3.044V2.803h4.293v9.134c0 1.643-.351 6.636-6.747 6.636-6.395 0-6.746-4.993-6.746-6.636zm16.291-9.135h4.293v6.439l4.622-6.439h5.039l-5.827 7.424 5.979 7.909h-5.366l-4.447-6.594v6.594h-4.293zm33.591 15.333h4.293V2.802h-4.293zm7.438-15.333h4.293v11.653h4.601v3.68h-8.894zM77.915 10.48c0-3.027-1.861-4.527-3.9-4.527-2.04 0-3.9 1.5-3.9 4.527 0 3.026 1.86 4.526 3.9 4.526 2.039 0 3.9-1.5 3.9-4.526zm-12.328 0c0-4.192 2.691-8.293 8.428-8.293 5.739 0 8.427 4.101 8.427 8.293 0 4.19-2.688 8.292-8.427 8.292-5.737 0-8.427-4.101-8.427-8.292z"/><path fill="#E22739" d="M.753 20.874H20.96V.624H.753z"/><path fill="#FFF" d="M18.725 4.468l-2.27 3.67c-.247.412-.21.736-.095 1.048l3.446 8.816H5.535a2.258 2.258 0 0 1-2.272-2.254L3.25 4.013c.035-1.516 2.244-1.541 2.285-.005v10.999c-.004.349.302.741.706.731h10.453L13.987 9.37a2.642 2.642 0 0 1-.119-.73c0-.27.12-.7.297-1.052l2.484-4.09c.183-.367.554-.614.995-.632.619-.027 1.147.398 1.175 1.056.002.13-.03.417-.094.546z"/><path fill="#FFF" d="M10.853 11.879V4.008c0-1.536 2.24-1.548 2.266 0v7.957c0 1.82-1.36 3.024-3.027 3.024-1.664 0-3.028-1.233-3.028-3.024V4.008c0-1.536 2.265-1.536 2.265 0v7.87c0 1.056 1.524 1.12 1.524 0z"/></g></svg>