<svg xmlns="http://www.w3.org/2000/svg" viewBox="0 0 62 51"><g fill="none"><path fill="#E77C22" d="M50.25 18.742a2.906 2.906 0 0 1-5.462-1.988l5.128-14.093A2.909 2.909 0 0 1 53.64.925a2.907 2.907 0 0 1 1.736 3.725L50.25 18.742z"/><path fill="#476EA5" d="M10.802 27.862a2.906 2.906 0 0 1-5.461-1.99l5.864-16.11a2.905 2.905 0 0 1 5.365-.233c.325.699.36 1.498.096 2.222l-5.864 16.111z"/><path fill="#6390C5" d="M19.832 27.862a2.906 2.906 0 0 1-5.461-1.99l5.863-16.11a2.905 2.905 0 0 1 4.696-1.148 2.905 2.905 0 0 1 .766 3.137l-5.864 16.111z"/><path fill="#6E8F82" d="M28.858 27.862a2.907 2.907 0 0 1-5.461-1.99l5.864-16.11a2.906 2.906 0 0 1 4.699-1.148 2.903 2.903 0 0 1 .766 3.137L28.86 27.862z"/><path fill="#AB414C" d="M37.88 27.862a2.905 2.905 0 0 1-5.459-1.99L40.87 2.662a2.906 2.906 0 0 1 5.46 1.99l-8.45 23.211z"/><path fill="#476EA5" d="M60.096 38.946a1.018 1.018 0 1 1-1.017 1.006 1.006 1.006 0 0 1 1.017-1.006zm0 1.885a.87.87 0 1 0-.832-.873.834.834 0 0 0 .832.873zm-.392-1.458h.457c.281 0 .414.112.414.34a.306.306 0 0 1-.312.323l.338.525h-.2l-.32-.513h-.202v.513h-.183l.008-1.188zm.183.527h.201c.163 0 .312 0 .312-.202 0-.157-.133-.183-.257-.183h-.246l-.01.385zm-58.22-.851l2.89 7.698 2.898-7.698h1.67v9.162H7.968V40.59h-.024L5.08 48.21h-1.04l-2.86-7.621h-.026v7.621H0V39.05h1.668zm14.198 9.303a.945.945 0 0 1-.673-.237 1.033 1.033 0 0 1-.25-.777c-.278.343-.638.61-1.046.777-.41.16-.848.24-1.29.237-.284.002-.569-.03-.846-.096a1.897 1.897 0 0 1-.7-.322 1.554 1.554 0 0 1-.475-.577 2.247 2.247 0 0 1 .02-1.777 1.64 1.64 0 0 1 .507-.583c.218-.155.46-.27.718-.34.272-.082.548-.149.827-.201.3-.06.585-.105.853-.135.24-.022.478-.062.712-.12.18-.042.347-.126.489-.244a.603.603 0 0 0 .179-.469 1.08 1.08 0 0 0-.135-.577.917.917 0 0 0-.346-.334 1.388 1.388 0 0 0-.475-.153 3.521 3.521 0 0 0-.519-.038 2.308 2.308 0 0 0-1.154.261c-.31.177-.477.507-.501.996H10.66c.006-.362.094-.717.258-1.04.148-.274.359-.51.615-.686.27-.18.57-.308.886-.378.345-.08.698-.118 1.052-.117.299 0 .597.022.893.065.282.038.555.127.804.263.239.132.438.324.578.557.156.287.231.611.217.938v3.42c-.004.185.012.37.048.553.03.118.131.179.302.179.114-.004.227-.026.334-.065v.847c-.241.126-.511.185-.783.173zm-1.526-3.347a7.93 7.93 0 0 1-.7.117c-.244.03-.49.062-.739.102a2.75 2.75 0 0 0-.665.185c-.19.08-.355.206-.481.366-.134.189-.2.417-.187.648a.85.85 0 0 0 .402.756c.122.081.259.138.402.167.158.035.32.053.481.053.314.007.627-.043.923-.15.232-.081.446-.207.63-.37a1.47 1.47 0 0 0 .358-.488c.074-.155.113-.324.117-.495v-1.112a1.355 1.355 0 0 1-.541.22zm4.349-3.42v1.052h.02c.453-.804 1.172-1.207 2.156-1.207a2.86 2.86 0 0 1 1.09.181c.273.107.515.278.707.5.183.222.312.483.378.764.075.321.112.65.108.981v4.363h-1.09v-4.5a1.241 1.241 0 0 0-1.338-1.33 2.215 2.215 0 0 0-.865.154 1.59 1.59 0 0 0-.603.436c-.166.194-.29.419-.366.662a2.643 2.643 0 0 0-.123.827v3.747h-1.1v-6.63h1.026zm7.016 0v.897h.026c.174-.363.475-.65.847-.804.402-.17.835-.256 1.271-.252.463-.01.922.087 1.34.284.37.179.695.44.95.762.258.331.452.708.571 1.11a4.672 4.672 0 0 1 .014 2.67c-.113.4-.305.772-.563 1.096a2.675 2.675 0 0 1-.95.739 3.102 3.102 0 0 1-1.33.27 3.302 3.302 0 0 1-.544-.053 2.924 2.924 0 0 1-.604-.167 2.301 2.301 0 0 1-.56-.314 1.799 1.799 0 0 1-.442-.493h-.026v3.42h-1.09v-9.165h1.09zm3.92 2.354a2.436 2.436 0 0 0-.371-.789 1.811 1.811 0 0 0-.642-.551c-.285-.14-.6-.21-.917-.201a1.798 1.798 0 0 0-1.565.788 2.372 2.372 0 0 0-.352.805 3.83 3.83 0 0 0 0 1.853c.07.289.193.562.364.804.17.234.393.426.65.56.298.145.629.214.96.2.33.013.655-.063.944-.218.245-.142.452-.34.604-.578.159-.252.272-.53.334-.82.069-.312.103-.63.102-.95a3.356 3.356 0 0 0-.11-.911v.008zm2.274-.405c.127-.407.337-.783.617-1.104.278-.316.621-.568 1.006-.738a3.714 3.714 0 0 1 2.778 0c.385.17.728.422 1.006.738.28.322.49.698.618 1.104.138.442.206.903.2 1.366a4.36 4.36 0 0 1-.2 1.36c-.13.404-.34.776-.618 1.097-.277.315-.62.565-1.006.732a3.792 3.792 0 0 1-2.778 0 2.817 2.817 0 0 1-1.006-.732 3.078 3.078 0 0 1-.617-1.097 4.36 4.36 0 0 1-.201-1.36 4.405 4.405 0 0 1 .2-1.366zm1.11 2.439c.094.287.245.553.443.782.183.206.409.37.662.48a2.013 2.013 0 0 0 1.609 0 1.92 1.92 0 0 0 .662-.48c.198-.229.348-.495.442-.782a3.652 3.652 0 0 0 0-2.145 2.32 2.32 0 0 0-.442-.788 1.916 1.916 0 0 0-.662-.49 2.03 2.03 0 0 0-1.61 0c-.253.114-.479.28-.661.49-.198.23-.348.499-.443.788a3.698 3.698 0 0 0 0 2.145zm11.505 2.238l-1.348-5.274h-.026l-1.334 5.274h-1.17l-2.131-6.638h1.207l1.5 5.431h.027l1.333-5.43h1.195l1.386 5.43h.024l1.489-5.43h1.13l-2.118 6.637h-1.164zm8.593-.424a3.018 3.018 0 0 1-1.875.565 3.394 3.394 0 0 1-1.378-.257 2.696 2.696 0 0 1-.981-.718 3.047 3.047 0 0 1-.604-1.105 5.336 5.336 0 0 1-.225-1.408 4.024 4.024 0 0 1 .231-1.386c.145-.401.364-.771.648-1.09.275-.306.612-.55.988-.718.394-.174.82-.262 1.25-.258a2.73 2.73 0 0 1 1.483.374c.38.235.7.553.938.93.234.379.399.796.487 1.233.087.417.123.843.108 1.27H49.21c-.01.28.025.559.102.828.074.254.201.49.372.692.18.208.404.372.656.483.296.125.615.186.935.179.404.017.803-.096 1.137-.322.311-.24.52-.588.583-.976h1.079a2.65 2.65 0 0 1-.968 1.684zm-.263-4.26a1.857 1.857 0 0 0-1.74-1.141 1.89 1.89 0 0 0-.763.147c-.22.092-.418.23-.583.402-.165.175-.296.38-.386.604-.096.23-.152.475-.167.724h3.812a2.251 2.251 0 0 0-.167-.737h-.006zm3.482-1.942v1.398h.026c.214-.479.552-.892.98-1.197.437-.27.949-.396 1.462-.36v1.155c-.38-.01-.759.052-1.117.181-.29.106-.546.288-.744.525-.193.248-.33.535-.402.84a4.494 4.494 0 0 0-.129 1.137v2.951h-1.09v-6.63h1.014z"/></g></svg>