<svg xmlns="http://www.w3.org/2000/svg" viewBox="0 0 56 56"><g fill="#63513D" fill-rule="evenodd"><path d="M32.502 6.412c.356 0 .668-.267.668-.624 0-.356-.312-.624-.668-.624a.609.609 0 0 0-.624.624c0 .357.268.624.624.624zm-8.6-1.114a.542.542 0 0 0 .535-.534.515.515 0 0 0-.535-.535.515.515 0 0 0-.535.535c0 .267.223.534.535.534zm-6.461 13.19l-.267-.267c.757-.713 1.515-1.783 1.649-2.407.088-.624.98-.49.802.134-.224.847-1.204 1.827-2.184 2.54zM11.96 5.521c-1.338.58-1.516 1.96-.58 2.807 1.114.98 3.03.134 2.851-1.425 1.515.089 2.496-1.515 2.273-2.585.668-.58.713-1.827-.09-2.317-.89-.535-1.693-.356-2.227.668-1.381-.088-2.718.98-2.228 2.852l-.624-.267c-.846-1.827.624-3.654 2.451-3.208.401-.891 1.738-1.827 3.253-.936 1.159.713 1.426 2.585.178 3.476.58 1.693-.624 3.12-2.406 2.94-.223 2.229-2.273 2.496-3.654 1.471-.757-.624-1.07-1.426-1.203-2.05-.178-.668-.178-1.247-.802-1.915-.49-.49-1.381-.49-1.381-.49 0-1.605-1.47-3.075-3.343-2.362-.668-.58-1.514-.624-2.094.09-.312.4-.534 1.47.535 1.96-.044 1.47 1.07 2.406 2.718 2.272.045.758.892 1.515 1.694 1.604l-.045.402c-.802-.09-1.248.178-1.782.846-1.916-.09-3.253.802-3.208 2.184C.91 11.76.642 13.186 1.4 13.944c.758.757 1.872.445 2.273-.445 1.38.267 2.584-.713 2.628-1.828 1.248 0 1.827-.535 2.05-1.693l.446.045c.133 1.247-.446 2.45-1.96 2.317-.045 1.515-1.471 2.317-2.852 1.827-.624 1.203-2.095 1.649-3.298.49-1.203-1.114-.757-3.03.802-3.52 0-1.47 1.114-2.852 3.208-2.317 0 0 .268-.669.936-.713-.446-.178-.758-.401-.846-.892-1.604.357-2.941-1.113-2.585-2.584-1.426-.757-1.47-2.183-.758-3.03C2.202.71 3.45.531 4.52 1.468c1.916-1.025 4.01.267 3.877 2.406 1.336-.09 2.139 1.024 1.96 2.228.223-.535.49-.758.98-.847l.624.266z"/><path d="M15.213 2.937l.312.223c-.624 1.337-1.693 2.673-2.63 3.475l-.356-.312c.669-1.07 2.05-2.852 2.674-3.386zm-9.18 7.13l.179.356c-.757.757-2.183 1.827-2.985 2.228l-.268-.356c.713-.803 2.139-1.828 3.075-2.229zm1.828-3.833l-.357.446C6.48 6.01 4.474 4.229 4.03 3.56l.311-.311c.98.49 2.852 2.183 3.52 2.985zM5.989 23.256c.134.58 0 1.248.535 1.872.178.222 1.203 1.559 1.96 2.228-1.025.4-3.03 1.247-4.455 1.425-.312.045-.624.223-.892.401-.178.312-.356.847-.445 1.471-.045.445-.045.936-.045 1.426 0 .445.223 1.871.713 2.807.49.936.98 1.381 1.56 1.649.133-.045.401-.09.802-.09 1.07-.044 1.916.58 2.317 1.07.134.222.446.267.802.267.891 0 1.872-.312 2.763-.668.223-.134.757-.535 1.292-.936.58-.446 3.61-3.03 4.946-3.654.713.356 1.872.847 3.075.847.044 0 .267.044.534-.045.357-.09.847-.223 1.471-.356 1.07-.223 2.317-.402 2.718-.402.98.046 3.877.09 4.59.09.713 0 1.738-.044 2.139-.09.624-.222 2.005-.579 3.297-1.158 1.293-.579 4.01-2.495 4.456-2.94.223-.18.446-.402.58-.58.044-.089.089-.133.089-.178 0-.045-.045-1.916-.045-1.916s.668-.713.936-.98v-.09c-.134-.357-.223-1.515-.178-2.673l-.624-.312c-.044 1.426-.58 2.673-1.07 3.475-.98.134-2.896.713-3.564 1.515l.4.09c.625-.357 1.293-.58 2.095-.58.668 0 .98.178.98.357 0 .133-.133.445-.178.579-.045.09-.09.267-.223.356a12.426 12.426 0 0 1-3.252 2.585c-.847.49-1.693.802-2.941 1.202-.401.09-.936.224-1.248.358-.49 0-2.985-.09-4.456-.09-1.47 0-4.5.222-5.436.445-.446.134-.58.312-1.07.312-.935 0-2.183-.49-2.94-.847-.134 0-.401.134-.668.268-.535.267-1.738 1.96-2.451 1.426-.357.757-1.916 1.426-2.406 2.183.044-.356.668-2.94.713-3.475 0-.09.044-.178-.045-.268-.534-.935-2.139-1.514-3.03-1.693-.223-.044-.356-.089-.535-.133l-1.426-.401-1.292.4 1.515.267-1.916 1.293c.357-.134 2.406-.713 2.54-.758.178-.044.401-.089.624 0 .312.09 1.07.268 1.56.446.267.09.712.58.846.847.045.133.045.356.09.891 0 .312-.045.802-.134 1.158-.223.936-.669 1.649-.802 1.916-.179.357-.402.49-.669.58-.4.222-.936.312-1.47.356-.402 0-.669-.044-.847-.267-.49-.713-1.782-1.381-3.075-1.114-.802-.49-1.604-2.05-1.604-3.297 0-.757.357-1.96.58-2.54 1.292-.178 3.92-1.159 5.168-1.738.268 0 1.026-.267 1.738-.267 1.693 0 3.387 1.47 4.412 2.495.178-.267.49-.713 1.38-.713 1.204 0 1.917 1.114 2.229 2.228l.624-.445c-.09-.624-.446-1.337-.936-1.872-.401-.4-1.203-.757-1.827-.757-.401 0-.758.089-1.025.089-.846 0-1.203-.401-1.871-.847-.669-.445-1.961-1.158-2.897-1.158-.58 0-.846.222-1.336.222-.713 0-.98-.267-1.293-.712-.178-.179-.89-.802-1.069-1.07-.133-.178-.312-.757-.401-1.069l-.982-.713z"/><path d="M6.97 23.969c.222.222.4.445.667.668.268.178.58.356.847.534.446.223.936.49 1.382.669.445.09.98.133 1.47.133.713 0 1.56-.133 2.273.223.49.179.49.713.89.847.58.223 2.184.267 3.076.267 1.782 0 3.698-.223 4.857-.49l-.535-.624c-.802.134-3.12.401-4.189.401-1.47 0-2.896-.267-2.896-.846 0-.446.445-1.07 1.337-1.07.935 0 2.361.58 2.629.669.267.044.356.044.534-.045l.535-.267c-.713-.356-3.253-1.203-4.144-1.203-.4 0-.668.045-.936.401-.311.446-1.247.847-2.673.847-.802 0-1.96-.179-2.184-.268-.445-.178-1.292-.668-1.827-1.069-.712-.49-1.336-1.07-1.737-1.738a1.063 1.063 0 0 1-.223-.624c0-.178.09-.312.09-.445.133.178.267.312.445.445.757.758 1.871 1.292 3.03 1.515.357.09.624.134.98.134.49 0 .936-.267 1.248-.535l-.49-.535c-.134.045-.446.045-.624.045-1.693 0-3.832-1.07-4.322-2.362-.045-.134-.134-.178-.045-.312a5.78 5.78 0 0 0 .134-.58c.089.09.312.268.535.446.623.402 1.827.936 2.094 1.114.579-.178 1.025-.4 1.381-.579.357-.178.847-.356 1.382-.356 1.247 0 2.673.713 4.01 1.381l.891-.356c-1.203-.847-3.743-2.005-5.168-2.005-.847 0-1.65.623-2.229.623-.668 0-2.629-.98-2.629-1.782 0-.624 1.248-.98 3.343-1.203-.357.49-.714 1.069-1.025 1.604l.534.312c3.208-4.679 6.595-7.709 9.403-9.58 1.024-.669 1.247-1.07 1.604-1.783.89-1.827 1.737-3.164 3.163-3.164.669 0 1.204.356 1.605.802l1.024.312-1.069.713 1.07.445c-1.382.401-3.298 1.783-4.1 3.788-1.47.044-2.184 1.292-2.674 2.272-.356.713-.846.981-1.649 1.471l-6.105 4.278.847.134 5.659-3.787c1.114-.758 1.648-1.337 1.916-1.828.49-1.069 1.069-1.871 2.183-1.871.535 0 1.114.267 1.604.713l.98.312-1.069.668.891.534c-2.584.803-4.188 2.674-5.124 6.239l.669.133c.356-1.158.712-2.227 1.292-3.208 1.515 0 3.03-.044 4.545-.044 3.966 0 7.263.178 9.046.668l-.624-1.069c-1.916-.356-4.679-.49-8.422-.49-1.292 0-2.54.044-3.832.044.846-.846 2.005-1.604 3.832-2.139l-1.292-.712 1.426-.802-1.96-.713c-.313-.312-.758-.624-1.293-.758.624-1.916 2.763-3.03 4.812-3.788l-1.425-.579 1.425-.802-2.227-.713c-.58-.668-1.114-.98-2.006-.98-2.05 0-2.896 1.782-3.743 3.342-.4.846-.668 1.203-1.426 1.693-1.56 1.025-3.61 2.63-5.525 4.634-.98-.713-3.075-2.851-3.61-4.01-.222.267-.445.891-.445.891.223.223 2.63 2.63 3.52 3.699a.976.976 0 0 0-.178.222c-.98.179-3.476.446-4.322.312l-.446.847c.624-.045 3.075-.357 4.144-.402-.312.357-.624.758-.936 1.159-3.208.356-5.302 1.025-5.302 2.183 0 .179.044.401.044.624 0 .49-.178.669-.534.891-.223.134-.223.268-.134.402.09.134.58.846.58.98 0 .267-.224.49-.402.713-.178.178-.178.223-.044.445l.935 1.961.98.714zm39.435-10.917c-.179.178-.357.445-.535.668l-.49-.713c1.693-2.273 6.238-3.342 8.911-3.565V8.24c-.356.089-.713.222-1.069.312-.445.089-.891.222-1.248.178-.4 0-.712-.134-.846-.356-.357-.49 0-1.248 1.158-1.96l-.935-.803c-.713.936-1.382 1.96-2.095 2.54-.668.58-1.336.846-1.871.445-.312-.223-.402-.312-.446-.89.044-.848.535-2.14.98-2.986l-1.069-.134c-.179 1.292-.712 2.362-1.292 3.253-.668 1.114-1.56 1.916-2.496 2.54l-.623-.58c.757-.445 1.693-1.158 2.317-2.139.757-1.158 1.382-2.584 1.382-3.832l3.119.268c-.446.58-1.159 1.871-1.426 2.762-.134.49-.134.892.044 1.026.312.222.891-.179 1.47-.758.802-.89 1.605-2.183 1.916-2.629l2.317 1.872c-1.025.534-2.004 1.158-1.826 1.515.178.311.846.222 1.56 0a7.276 7.276 0 0 0 1.692-.758V10.2c-1.114 0-2.986.222-4.768.757.446.58 1.65.802 2.406.936l-.356 2.495c-1.96-.846-3.476-1.292-5.881-1.336l.801-.713c1.738.044 3.52.579 4.501 1.07l.133-.937c-.89-.133-2.005-.623-2.494-1.203-.758.268-1.515.624-2.14 1.07l-.801.713z"/><path d="M37.048 20.984l.713-1.604a28.478 28.478 0 0 1-2.362-3.209l-.624-1.069c-1.47-2.762-.936-4.1-1.693-5.347-.668-.98-3.788-.356-4.278-.267l.89-1.47-1.782.133 1.516-1.782c.178-.268.222-.446.4-1.07.268-.98 1.07-2.584 3.477-2.584 2.628 0 3.475 2.139 4.589 3.074a66.706 66.706 0 0 1 4.545 4.01l.624.58a27.116 27.116 0 0 1 2.317 2.63l.49.712c3.209 4.634 7.13 13.502 8.912 17.556.134.402.268.803.401 1.114a51.988 51.988 0 0 1-3.876-2.406l-.758-.535-1.47-1.069-.802-.668a17.88 17.88 0 0 1-1.426-1.159l1.603 9.224c.09.58.58.49.937 0 .356-.49.534-.624.356-1.248l-1.47-6.817.801.668 1.426 5.748c.134.535.357.713.981.713.624.045.713-.178.624-.579l-1.56-4.813.758.535 1.47 4.322c.401 1.114 0 1.248-.668 1.248-.624 0-1.248-.178-1.604.045-.356.267-.802.89-1.382 1.426-.445.49-1.158.401-1.292-.535L46.05 25.84c-1.114-1.024-2.228-2.094-3.208-3.208-.401-.178-.892-.4-1.337-.579l-.624-.312c-.267-.134-.445-.178-.49-.223-.49.58-.98 1.248-1.515 1.693-.267.268-.49.402-.891.402-.134 0-.312 0-.446-.09-.178-.089-.311-.267-.49-.534-.134-.179-.312-.446-.49-.713-.356-.58-.713-1.337-1.07-1.916-.356-.669-.712-1.159-.757-1.248-.045-.134-.223-.267-.223-.267-.222.267-.356.846-.356 1.203l-.624-.223a4.474 4.474 0 0 1 .357-1.292c0-.223-.267-.535-.49-.535-.313 0-.624.312-.758.936l-.668.312c.045-1.025.4-2.139 1.426-2.139.802 0 1.337.624 1.693 1.203.4.578 1.692 2.316 1.96 2.673l.49.623c.089.402.267.624.356.758.178.267.356.267.624 0 .134-.09.49-.401.891-.802.312-.312.624-.758.757-.936.357.134 1.07.49 1.604.713-2.361-2.94-4.678-6.505-5.66-8.912-.4-1.024.402-1.336.759-.356 1.07 2.674 4.144 7.441 6.417 9.937 2.584 2.851 7.352 7.04 10.47 8.689-.445-.891-1.024-2.14-1.737-3.61-3.788-2.139-7.575-6.06-9.358-9.446l.758.089c1.649 2.94 5.615 6.862 7.976 7.976-2.139-4.545-4.946-10.293-7.085-12.744-2.718-3.075-5.659-5.481-7.085-6.684-1.381-1.248-1.96-2.763-3.921-2.763-1.65 0-2.54 1.204-2.852 2.362-.09.267-.134.401-.267.624l-.802.936 1.693-.179-.98 1.337s2.628-.58 3.565.668c.98 1.337.356 2.852 2.005 5.838.713 1.292 2.45 3.609 3.03 4.144l-1.159 2.361-.49-.623zm-25.934.4l-.402-.266a4.87 4.87 0 0 1 1.114-.669 1.97 1.97 0 0 1 .669-.133c.445 0 .846.178 1.203.4.579.313 1.247.67 1.782.67.178 0 .357-.046.58-.046.534 0 1.024.223 1.292.223.178 0 .267-.133.4-.312a2.335 2.335 0 0 1 1.16-.89c.49-.224 1.158-.313 1.826-.313.58 0 1.07.09 1.337.134 0 0-.401.49-.49.624-.58 0-1.604-.045-2.273.222-.445.179-.579.446-.579.758 0 .49.58.713 1.159.891.4.09.802.134 1.114.134.445 0 1.247-.178 2.05-.356.98-.179 1.871-.446 2.138-.535l.357.624c-1.07.356-2.184.713-3.208.891-.58.134-1.114.223-1.604.223-.847 0-1.738-.357-2.451-.713-.624-.267-1.159-.58-1.694-.58-.534 0-1.069.18-1.56.49-.267.135-1.024.67-1.693.937-.534.178-.935.312-1.47.312-.446 0-.758-.09-.98-.268l.802-.49c.133.09.311.134.4.134.134 0 .268-.045.58-.179.178-.044.445-.222.624-.312.312-.222.4-.356.534-.445.268-.179.357-.446.045-.713-.178-.134-.312-.267-.49-.401-.312-.179-.49-.312-1.025-.312-.579 0-1.025.133-1.247.267z"/><path d="M22.432 21.696s-.49-.133-.624-.133c.312-.446.757-.802 1.069-1.025.668-.446 1.337-.713 2.406-.758.267-.044.847-.089 1.159-.089.312.045.802.045 1.247.134.312.044.624.133.891.178.134.045.669.045.847 0 .757-.133 1.649-.401 2.094-.668l.179.713c-.981.534-2.095 1.024-3.164 1.024-.49 0-1.07-.044-1.604-.089-.892-.089-1.694-.223-1.96-.223-.758 0-1.827.357-2.54.936zm-.713 3.966l-.936-.445c1.292-.624 3.253-1.292 4.1-1.426.802-.134 1.737-.223 2.272-.402.267.624.757 1.248 1.426 1.248.267 0 .668-.178 1.114-.356.49-.223.936-.446 1.203-.535.267-.134 1.114-.49 1.872-.847.267-.133 1.024-.49 1.069-.49l.49.268c-.133.624-.401 1.426-.668 2.005-.09.222-.223.401-.312.535-.222.222-.58.579-1.025.89-.49.357-1.114.714-1.738 1.07-.49.267-.98.58-1.515.802l-.222-.49c.784-.464 1.542-.97 2.272-1.515.3-.215.583-.453.847-.713.178-.133.267-.267.356-.4.223-.268.58-.892.669-1.16-.312.135-1.382.669-1.872.892-.58.312-1.47.758-2.005 1.025-.357.178-.713.267-.98.267-.58 0-.847-.4-.98-.668-.357-.624-.714-.668-1.739-.668-1.158-.045-2.762.445-3.698 1.113zm5.48-2.94s-.133-.536-.222-.758c0 0 .178-.045.4-.045.313 0 1.204.09 1.56.09 1.337 0 1.827-.402 2.229-.758.356-.312.713-.58 1.604-.58.802 0 1.737.313 2.005.446l-.045.758a3.076 3.076 0 0 0-1.426-.357c-.312 0-.624 0-.847.134-.222.134-.4.312-.623.49-.223.178-.536.356-.981.535-.4.178-.936.267-1.738.267-1.024 0-1.603-.178-1.915-.223z"/><path d="M18.644 28.291l.624-.267c.535.222 1.381.49 1.96.49.357 0 .625-.134.847-.223.178-.089 2.273-1.114 3.297-1.47a2.38 2.38 0 0 1 .802-.179c.268 0 .268.09.357.223.178.312 1.738 2.495 1.871 2.63 1.292-.402 2.63-.98 3.387-1.694.802-.758 1.47-1.649 2.139-2.362.222-.267.534-.49.668-.579.669-.357 2.762-.401 3.61-.357l-.491.713c-1.56 0-2.406.179-2.807.446a5.773 5.773 0 0 0-.624.713c-.535.668-1.114 1.604-1.336 1.782.445.312.935.58 1.737.58 1.293 0 2.228-.803 2.719-1.248l.445.223c-.316.45-.708.842-1.158 1.158a5.752 5.752 0 0 1-1.56.713c-.757-.134-2.406-.49-2.807-.534-1.426.579-3.787 1.514-4.545 1.737-.172.06-.353.09-.535.09-.624.044-1.47.044-2.272 0-.535 0-1.07 0-1.337-.045l-.713-.713c.624.133.846.133 1.426.133 1.336 0 2.228-.222 2.495-.266.267-.09.312-.223.223-.446a3.729 3.729 0 0 0-.624-1.025 6.823 6.823 0 0 0-.669-.58c-.178-.133-.356-.178-.891 0-.445.134-1.916.936-2.54 1.293-.312.133-.579.222-1.114.089-.623-.134-2.05-.668-2.584-1.025zm4.055-16.22c.267 0 .535-.267.535-.534a.542.542 0 0 0-.535-.535.515.515 0 0 0-.535.535c0 .267.223.535.535.535zm20.185 30.791c0-.4-.356-.757-.802-.757H40.97c-.446 0-.803.356-.803.757l.045 11.942c0 .401.312.757.758.757h1.113c.446 0 .802-.356.802-.757V42.862zm1.426.356v.535c0 .268.179.446.446.446H52.6a.685.685 0 0 0 .668-.668v-.936c0-.356-.312-.713-.668-.668 0 0-7.576.757-7.843.801-.268 0-.446.224-.446.49zM37.94 55.561c-1.961 0-3.165-1.47-3.165-3.119v-4.768h-.579c-.267 0-.535-.267-.535-.535v-.802c0-.311.267-.534.535-.534h.58v-2.941c0-.401.311-.758.757-.758h1.113c.402 0 .713.357.713.758v2.941h1.738c.312 0 .535.222.535.534v.802a.541.541 0 0 1-.535.535h-1.738v4.412c0 .846.535 1.47 1.471 1.47h.179c.31 0 .579.223.579.58v.847a.59.59 0 0 1-.58.579H37.94zM24.57 50.526c0-2.54-1.515-5.08-4.946-5.08-3.164 0-4.901 2.496-4.901 5.08 0 2.763 1.871 5.214 4.946 5.214 2.094 0 4.144-1.07 4.545-2.896.044-.223-.134-.58-.446-.58h-1.515a.713.713 0 0 0-.624.357c-.446.623-1.07.935-1.96.935-1.337 0-2.229-1.025-2.318-2.183h6.372c.58 0 .847-.312.847-.847zm-7.174-1.069c.09-1.114 1.07-1.96 2.228-1.96 1.203 0 2.183.846 2.317 1.96h-4.545zm36.138 1.07c0-2.54-1.515-5.08-4.946-5.08-3.164 0-4.901 2.495-4.901 5.08 0 2.762 1.871 5.213 4.946 5.213 2.094 0 4.144-1.07 4.545-2.896.044-.223-.134-.58-.446-.58h-1.515a.713.713 0 0 0-.624.357c-.445.623-1.069.935-2.005.935-1.292 0-2.183-1.025-2.272-2.183h6.372c.58 0 .846-.312.846-.847zm-7.174-1.07c.089-1.114 1.07-1.96 2.228-1.96 1.203 0 2.183.846 2.273 1.96h-4.5z"/><path d="M32.636 42.24H12.049c-.49 0-.847.4-.847.845l.045 8.11s-4.412-8.02-4.635-8.421a1.535 1.535 0 0 0-1.336-.758H3.582a.846.846 0 0 0-.846.847v11.852c0 .49.356.847.846.847h1.07a.82.82 0 0 0 .846-.847l-.044-8.287s4.456 8.065 4.678 8.377c.223.445.669.757 1.292.757h1.56a.82.82 0 0 0 .847-.847v-10.47h18.804a.59.59 0 0 0 .579-.58v-.847a.588.588 0 0 0-.578-.579z"/><path d="M29.294 47.408c.891 0 1.56.31 1.827.89.09.268.312.312.624.312h1.247c.179 0 .446-.178.446-.445 0-1.426-1.738-2.718-4.144-2.718-2.496 0-4.144 1.202-4.144 3.074 0 1.47 1.158 2.318 2.54 2.718.668.134 1.782.401 2.317.58.534.134 1.069.312 1.069.802 0 .802-.802 1.025-1.738 1.025-.846 0-1.693-.357-1.916-.98-.134-.357-.401-.401-.757-.401h-1.248c-.223 0-.49.222-.49.49v.178c0 1.381 1.871 2.807 4.456 2.807 1.782 0 4.322-.757 4.322-3.163 0-1.427-.935-2.407-2.495-2.808-.58-.134-2.005-.535-2.317-.579-.58-.178-1.114-.356-1.114-.802 0-.758.669-.98 1.515-.98z"/></g></svg>