<svg xmlns="http://www.w3.org/2000/svg" viewBox="0 0 116 37"><g fill="none" fill-rule="evenodd"><path fill="#004883" d="M71.583 17.547c-.389.127-.921.234-1.583.316a8.282 8.282 0 0 1-1.076.062c-.689 0-1.435-.055-2.158-.111l-.025-.001c-.67-.05-1.304-.098-1.912-.098a9.5 9.5 0 0 0-1.214.074c-1.136.141-2.031.498-2.031.498l.01-.092c.22-2.278 2.134-4.223 4.45-4.53.213-.026.433-.04.653-.04 2.182 0 4.298 1.655 4.927 3.852l.016.057-.057.013zm2.666.967v-.03c-.01-.147-.038-.384-.069-.639a7.753 7.753 0 0 0-.3-1.356c-1.053-3.322-3.873-5.466-7.183-5.466-.33 0-.672.02-1.008.067-4.245.546-7.128 4.393-6.567 8.758.51 3.952 3.69 6.66 7.56 6.66.326 0 .666-.023 1.01-.065 2.061-.262 3.873-1.125 5.23-2.805a.447.447 0 0 0 .1-.327.39.39 0 0 0-.171-.264c-.228-.164-1.04-.558-1.483-.77l-.293-.144c-.134-.069-.23-.1-.318-.1-.107 0-.209.055-.308.176a4.898 4.898 0 0 1-3.768 1.742c-2.062 0-4.143-1.38-4.747-3.276l-.015-.05.044-.021c.107-.053 1.072-.503 2.502-.503.178 0 .358.008.535.023.41.033.822.086 1.256.141.802.106 1.634.216 2.604.216.599 0 1.187-.043 1.786-.127 2.361-.455 3.297-1.117 3.305-1.123.333-.215.32-.394.298-.717zm36.978-6.621a.36.36 0 0 0-.359-.358h-1.954a.358.358 0 0 0-.356.358v13.89a.36.36 0 0 0 .356.359h1.954a.361.361 0 0 0 .36-.359v-13.89zm-1.334-5.312c-.972 0-1.764.793-1.764 1.765a1.764 1.764 0 1 0 1.764-1.766zm-25.861 7.08c2.768 0 4.938 2.279 4.938 5.19 0 2.927-2.059 5.133-4.79 5.133-1.378 0-2.656-.494-3.591-1.39-.965-.921-1.494-2.222-1.494-3.657 0-2.91 2.214-5.276 4.937-5.276zm-.087 12.85a7.348 7.348 0 0 0 5.634-2.161c1.406-1.423 2.177-3.376 2.177-5.5 0-4.389-3.378-7.827-7.693-7.827-3.51 0-6.475 2.312-7.38 5.75-.155.585-.315 2.074-.315 3.559V31.23c0 .199.16.36.359.36h1.937c.2 0 .363-.163.363-.363l-.002-6.866.102.099c.952.925 2.717 1.952 4.818 2.05zm-34.729-12.85c2.767 0 4.937 2.279 4.937 5.19 0 2.927-2.058 5.133-4.79 5.133-1.383 0-2.655-.494-3.59-1.39-.966-.921-1.498-2.222-1.498-3.657 0-2.91 2.217-5.276 4.941-5.276zm-.086 12.85c.124.006.251.011.373.011 2.01 0 3.876-.775 5.26-2.171 1.405-1.424 2.18-3.377 2.18-5.5 0-4.39-3.382-7.828-7.698-7.828-3.51 0-6.476 2.312-7.38 5.75-.157.585-.314 2.074-.314 3.559V31.23c0 .199.161.36.355.36h1.943c.2 0 .362-.163.362-.363l-.003-6.866.098.099c.952.925 2.717 1.952 4.824 2.05zm44.493-2.432c1.687 1.544 3.53 2.426 5.923 2.426h.076c4.13-.027 5.975-2.284 5.975-4.509 0-3.076-2.902-3.917-3.79-4.103-.287-.056-.584-.112-.888-.172-.719-.139-1.465-.281-2.143-.469-.475-.13-2.026-.647-2.026-1.806 0-1.276 1.416-1.963 2.746-1.963 1.118 0 2.05.188 3.241 1.119a.63.63 0 0 0 .384.157c.118 0 .231-.04.352-.128.33-.243.934-.752 1.333-1.151a.402.402 0 0 0 .132-.309c-.009-.169-.135-.307-.199-.36-1.594-1.265-3.128-1.782-5.29-1.788h-.017c-3.094 0-5.43 1.989-5.43 4.626 0 2.09 1.718 3.574 4.831 4.185l1.95.374c1.282.235 2.002.916 1.977 1.869-.023.929-1.162 1.89-3.033 1.89-1.528 0-2.874-.596-4-1.62l-.018-.016c-.079-.072-.175-.16-.303-.16a.483.483 0 0 0-.287.122c-.117.095-1.419 1.125-1.558 1.27a.305.305 0 0 0-.092.217c.003.12.082.233.154.299zm20.452.323c.135 0 .211.105.211.22 0 .109-.076.213-.219.213h-.3v-.433h.308zm.17.721c.247-.062.352-.283.352-.501 0-.267-.168-.531-.522-.531h-.627v1.613h.318v-.557h.105l.4.557h.386l-.412-.581zm-.247 1.099c.737 0 1.317-.594 1.317-1.331a1.32 1.32 0 0 0-1.317-1.336c-.736 0-1.317.6-1.317 1.336 0 .737.581 1.33 1.317 1.33zm0-2.951c.893 0 1.602.727 1.602 1.62a1.598 1.598 0 1 1-3.198 0c0-.893.705-1.62 1.596-1.62z"/><path fill="#FFF" d="M30.718 31.309c-6.934 6.936-18.181 6.935-25.115 0-6.937-6.937-6.937-18.183 0-25.118 6.935-6.935 18.181-6.935 25.114 0 6.937 6.935 6.937 18.18.001 25.118"/><path fill="#004883" d="M31.986 9.788a11.53 11.53 0 0 1 .515 3.407c0 3.827-1.881 7.191-4.743 9.3-4.975 3.664-12.227 3.67-22.24 6.824a16.442 16.442 0 0 0 12.642 5.912c9.102 0 16.48-7.379 16.48-16.48 0-3.305-.977-6.381-2.654-8.963z"/><path fill="#E32934" d="M28.044 5.564a16.39 16.39 0 0 0-9.884-3.295C9.058 2.27 1.68 9.65 1.68 18.75c0 3.664 1.195 7.047 3.217 9.783C15.98 25.305 24.733 16.61 28.044 5.563z"/></g></svg>