<svg xmlns="http://www.w3.org/2000/svg" viewBox="0 0 119 19"><path fill="#007CC5" d="M11.404 10.834S7.481 6.836 7.48 6.836a1.22 1.22 0 0 0-.893-.378H0v2.554h7.211a2.011 2.011 0 0 1 1.455.614c.192.194.344.425.448.68.103.254.156.527.155.803v7.346h2.505v-6.711c0-.349-.131-.672-.37-.91zm6.987-4.376c-.342 0-.66.133-.892.378l-3.924 3.998c-.239.238-.37.561-.37.91v6.711h2.505V11.11c0-1.157.923-2.097 2.058-2.097h7.21V6.458h-6.587zm23.814-.292c-1.213 0-2.464.873-3.042 2.125l-.02.04h-.162V6.459H37.08v11.998h2.04v-5.454c0-3.055 1.303-5.03 3.318-5.03.435 0 .815.07 1.144.192V6.32a5.822 5.822 0 0 0-1.377-.154zm62.84 1.158c-.766-.781-1.92-1.16-3.531-1.16-1.325 0-2.619.373-3.845 1.104l.105 1.737c.9-.735 2.183-1.19 3.39-1.19 1.033 0 1.77.24 2.256.735.515.523.754 1.324.754 2.52v.078l-.075-.005a37.444 37.444 0 0 0-2.328-.046c-1.448-.002-3.394.407-4.52 1.554-.623.635-.94 1.434-.94 2.371 0 1.102.311 1.976.924 2.602.725.736 1.89 1.126 3.37 1.126 2.129 0 3.244-1.268 3.625-1.813l.021-.03h.155v1.546h1.808v-7.344c0-1.746-.381-2.983-1.169-3.785zm-.871 5.336v1.145c0 .952-.299 1.764-.863 2.349-.598.62-1.469.945-2.52.947-.64 0-1.305-.274-1.736-.712a1.9 1.9 0 0 1-.551-1.353c0-2.187 2.936-2.423 4.2-2.423.234 0 .473.011.702.023.229.012.465.024.697.024h.071zM52.041 7.324c-.767-.781-1.921-1.16-3.532-1.16-1.326 0-2.62.373-3.845 1.104l.105 1.737c.9-.735 2.182-1.19 3.39-1.19 1.033 0 1.771.24 2.256.735.514.523.754 1.324.754 2.52v.078l-.075-.005a37.419 37.419 0 0 0-2.329-.046c-1.446-.002-3.393.407-4.518 1.554-.625.635-.941 1.434-.941 2.371 0 1.102.311 1.976.925 2.602.723.736 1.888 1.126 3.368 1.126 2.13 0 3.245-1.268 3.626-1.813l.022-.03h.154v1.546h1.809v-7.344c0-1.746-.384-2.983-1.169-3.785zm-.872 5.336v1.145c0 .952-.3 1.764-.863 2.349-.597.62-1.47.945-2.52.947-.64 0-1.305-.274-1.735-.712a1.894 1.894 0 0 1-.551-1.353c0-2.187 2.936-2.423 4.198-2.423.235 0 .473.011.704.023.228.012.464.024.696.024h.071zm13.085-5.38c-.727-.741-1.775-1.116-3.116-1.116-1.683 0-3.23.867-3.845 2.16l-.02.042h-.163V6.461h-1.97v11.995h2.042V12.91c0-1.557.298-2.791.886-3.668.636-.948 1.584-1.429 2.816-1.429 1.867.118 2.595 1.355 2.595 4.416v6.226h2.041v-7.157c0-1.812-.426-3.164-1.266-4.02zm19.882 4.26c-1.126-.524-2.19-1.017-2.19-2.169 0-.947.851-1.557 2.17-1.557.48 0 1.684.275 2.25.581l.17-1.77c-.902-.278-1.706-.461-2.654-.461-1.36 0-2.466.393-3.196 1.136-.619.632-.933 1.48-.933 2.525 0 1.849 1.567 2.63 2.95 3.318 1.135.564 2.205 1.099 2.205 2.138 0 .47-.151.864-.45 1.169-.576.586-1.492.65-1.858.65-.583 0-1.77-.256-2.668-.811l-.106 1.828c1.06.559 2.261.633 3.193.633 1.1 0 2.106-.318 2.829-.9.82-.658 1.254-1.629 1.254-2.81 0-2.12-1.576-2.853-2.966-3.5zm10.08 5.56c-.505 0-.97-.19-1.307-.534-.4-.407-.61-1-.61-1.714V8.11h3.153v-1.65H92.3V2.962l-2.043.668v2.827h-2.686v1.65h2.686v7.198c0 1.094.288 1.94.856 2.517.602.615 1.52.927 2.729.927.689 0 1.368-.189 1.797-.313v-1.718c-.42.25-.897.382-1.423.382zM116.96.75v7.353h-.158l-.021-.034c-.768-1.265-2.074-1.905-3.882-1.905-1.38 0-2.527.454-3.407 1.35-1.069 1.09-1.657 2.766-1.657 4.717 0 2.167.644 4.066 1.767 5.209.853.87 1.954 1.31 3.274 1.31 2.016 0 3.388-1.009 4-1.954l.021-.033h.155v1.69H119V.75h-2.041zm0 11.73c0 1.469-.492 2.846-1.318 3.687-.606.62-1.364.934-2.253.934-.8 0-1.494-.301-2.062-.894-1.001-1.047-1.326-2.7-1.3-3.796-.032-1.547.397-2.899 1.176-3.71.565-.588 1.293-.887 2.162-.887.898 0 1.667.319 2.282.946.835.85 1.313 2.206 1.313 3.72zM76.279.75v7.353h-.158l-.02-.034c-.77-1.265-2.076-1.905-3.883-1.905-1.381 0-2.528.454-3.406 1.35-1.07 1.09-1.659 2.766-1.659 4.717 0 2.167.645 4.066 1.767 5.209.853.87 1.955 1.31 3.275 1.31 2.015 0 3.387-1.009 3.999-1.954l.02-.033h.157v1.69h1.948V.75h-2.04zm0 11.73c0 1.469-.493 2.846-1.317 3.687-.608.62-1.366.934-2.254.934-.8 0-1.494-.301-2.061-.894-1.002-1.047-1.327-2.7-1.3-3.796-.032-1.547.395-2.899 1.175-3.71.565-.588 1.292-.887 2.163-.887.898 0 1.665.319 2.28.946.835.85 1.314 2.206 1.314 3.72z"/></svg>